<svg xmlns="http://www.w3.org/2000/svg" version="1.1" x="0" y="0" viewBox="243.2 243.2 53.6 53.6" enable-background="new 243.2 243.2 53.6 53.6" xml:space="preserve"><path fill="#808285" d="M293.4 292.3c0 0.6-0.5 1.1-1.1 1.1h-44.6c-0.6 0-1.1-0.5-1.1-1.1v-39.6c0-0.6 0.5-1.1 1.1-1.1h7.3v3.3c0 0.9 0.8 1.7 1.7 1.7s1.7-0.7 1.7-1.7v-3.3h10v3.3c0 0.9 0.8 1.7 1.7 1.7s1.7-0.7 1.7-1.7v-3.3h10v3.3c0 0.9 0.7 1.7 1.7 1.7 0.9 0 1.7-0.7 1.7-1.7v-3.3h7.3c0.6 0 1.1 0.5 1.1 1.1L293.4 292.3 293.4 292.3zM292.3 248.2h-7.3v-3.3c0-0.9-0.7-1.7-1.7-1.7 -0.9 0-1.7 0.7-1.7 1.7v3.3h-10v-3.3c0-0.9-0.8-1.7-1.7-1.7s-1.7 0.7-1.7 1.7v3.3h-10v-3.3c0-0.9-0.8-1.7-1.7-1.7s-1.7 0.7-1.7 1.7v3.3h-7.3c-2.5 0-4.5 2-4.5 4.5v39.6c0 2.5 2 4.5 4.5 4.5h44.6c2.5 0 4.5-2 4.5-4.5v-39.6C296.8 250.2 294.8 248.2 292.3 248.2M254.9 268.3h6.7v-5h-6.7L254.9 268.3 254.9 268.3zM254.9 276.7h6.7v-5h-6.7L254.9 276.7 254.9 276.7zM254.9 285.1h6.7v-5h-6.7L254.9 285.1 254.9 285.1zM266.6 285.1h6.7v-5h-6.7V285.1zM266.6 276.7h6.7v-5h-6.7V276.7zM266.6 268.3h6.7v-5h-6.7V268.3zM278.4 285.1h6.7v-5h-6.7V285.1zM278.4 276.7h6.7v-5h-6.7V276.7zM278.4 268.3h6.7v-5h-6.7V268.3z"/></svg>