<svg xmlns="http://www.w3.org/2000/svg" version="1.1" x="0" y="0" viewBox="162 162 216 216" enable-background="new 162 162 216 216" xml:space="preserve"><path fill="#D1D3D4" d="M303.7 243.6h-18.4c-2.2 0-5.4 1.7-5.4 4.4v42.7c0 2.7 3.3 4.1 5.4 4.1h18.4c2.2 0 3.2-1.4 3.2-4.1V248C306.8 245.3 305.8 243.6 303.7 243.6zM253.1 243.6h-24.9c-2.8 0-5.1 2.3-5.1 5.1v14.1c0 2.8 2.3 5.1 5.1 5.1h24.9c2.8 0 5.1-2.3 5.1-5.1v-14.1C258.2 245.9 255.9 243.6 253.1 243.6zM270 162c-59.6 0-108 48.4-108 108s48.4 108 108 108c59.6 0 108-48.4 108-108S329.6 162 270 162zM232.4 318c-8.5 0-15.4-6.9-15.4-15.4s6.9-15.4 15.4-15.4 15.4 6.9 15.4 15.4S240.9 318 232.4 318zM325.7 297c0 3.5-0.6 8.7-4.1 8.7h-70c0 0 0.1-4.7 0.1-5.1 -0.3-11.1-9.1-16.9-19.3-16.9 -10.2 0-20.1 8.2-20.1 18.4v0c-13.5-2.6-19.6-9.2-19.6-28.8 0-22.4 30.4-51.4 52-51.4h0.7 76.2c3.5 0 4.1 0.9 4.1 4.4V297zM343.5 303h-11.3c-2.1 0-3.8-1.7-3.8-3.8v-0.5c0-2.1 1.7-3.8 3.8-3.8h11.3c2.1 0 3.8 1.7 3.8 3.8v0.5C347.3 301.3 345.6 303 343.5 303z"/><circle fill="#D1D3D4" cx="232.4" cy="302.8" r="4.4"/></svg>