<svg xmlns="http://www.w3.org/2000/svg" version="1.1" x="0" y="0" viewBox="246.7 243.2 46.6 53.6" enable-background="new 246.7 243.2 46.6 53.6" xml:space="preserve"><path fill="#808285" d="M280.4 243.2v5.2h5.4c-0.9 0.7-1.7 1.5-2.1 2.4 -0.5 1-0.6 1.9-0.8 2.6 -0.2 1.2-0.3 1.5-1.1 1.7 -1.6 0.5-2.8 1.9-3.9 3.1 -0.6 0.7-1.3 1.5-1.7 1.6 -0.9 0.3-2.3 0.5-3.8 0.7 -0.9 0.1-1.8 0.2-2.7 0.4 -0.4 0.1-0.8 0.1-1.2 0.2 -0.6 0.1-1.2 0.2-1.7 0.3 -0.5-1.2-1.4-2-2.2-2.7 -0.6-0.5-1.2-1.1-1.7-1.7 -1.3-1.8-0.8-4.4 0.2-6 0.6-1 0.7-4.3 0.6-7.7L280.4 243.2 280.4 243.2zM289.8 248.4c-1.7 1-3.6 2.3-4.1 3.4 -0.3 0.7-0.5 1.4-0.6 2 -0.2 1.2-0.5 2.8-2.6 3.4 -1 0.3-2 1.5-2.9 2.5 -0.9 1-1.7 1.9-2.6 2.3 -1.1 0.4-2.7 0.6-4.3 0.8 -0.9 0.1-1.7 0.2-2.6 0.4 -0.4 0.1-0.9 0.1-1.2 0.2 -0.7 0.1-1.4 0.2-1.8 0.3 0 0.4 0 0.9 0.1 1.4 0.2 2.5 0.4 6.3-2.6 11.7 -2.2 3.9-4 5.6-5.3 6.8 -0.9 0.8-1.4 1.3-1.7 2.1 -0.3 0.9-1 2.2-1.8 3.7h3.1v5.5h8.5v1.8h25.9v-48.4L289.8 248.4 289.8 248.4zM267.1 263.2L267.1 263.2C267.1 263.2 267.1 263.2 267.1 263.2 267.1 263.2 267.1 263.2 267.1 263.2M253.1 289.4c1-1.7 2-3.5 2.3-4.4 0.5-1.4 1.3-2.1 2.3-3 1.2-1.1 2.9-2.6 4.9-6.3 2.7-4.8 2.5-8.1 2.3-10.5 0-0.7-0.1-1.4 0-2h0c0 0 0 0 0 0 0 0 0 0 0 0 0.1-1.1-0.6-1.7-1.7-2.7 -0.7-0.6-1.4-1.2-2.1-2.1 -1.9-2.6-1.4-6.1 0.1-8.5 0.3-0.6 0.4-3.3 0.3-6.6h-14.1l-0.7 29.7 2.7 0 0.7 16.4L253.1 289.4 253.1 289.4z"/></svg>