<svg xmlns="http://www.w3.org/2000/svg" version="1.1" x="0" y="0" viewBox="243.2 243.2 53.6 53.6" enable-background="new 243.2 243.2 53.6 53.6" xml:space="preserve"><path fill="#808285" d="M245.6 270c0-13.4 10.9-24.4 24.4-24.4s24.4 10.9 24.4 24.4 -10.9 24.4-24.4 24.4C256.5 294.4 245.6 283.5 245.6 270M296.8 270c0-14.8-12-26.8-26.8-26.8 -14.8 0-26.8 12-26.8 26.8 0 14.8 12 26.8 26.8 26.8C284.8 296.8 296.8 284.8 296.8 270M271 285.5V270h5.1l0.8-5.1H271v-2.6c0-1.3 0.4-2.6 2.4-2.6h3.8v-5.1h-5.4c-4.6 0-5.8 3-5.8 7.2v3.1h-3.1v5.1h3.1v15.5H271z"/></svg>