<?xml version="1.0" encoding="utf-8"?>
<!-- Generator: Adobe Illustrator 18.0.0, SVG Export Plug-In . SVG Version: 6.00 Build 0)  -->
<!DOCTYPE svg PUBLIC "-//W3C//DTD SVG 1.1//EN" "http://www.w3.org/Graphics/SVG/1.1/DTD/svg11.dtd">
<svg version="1.1" id="Layer_1" xmlns="http://www.w3.org/2000/svg" xmlns:xlink="http://www.w3.org/1999/xlink" x="0px" y="0px"
	 viewBox="226.8 226.8 86.3 86.3" enable-background="new 226.8 226.8 86.3 86.3" xml:space="preserve">
<path fill="#808285" d="M230.8,270c0-21.7,17.6-39.2,39.2-39.2c21.7,0,39.2,17.6,39.2,39.2c0,21.7-17.6,39.2-39.2,39.2
	C248.3,309.2,230.8,291.7,230.8,270 M313.2,270c0-23.8-19.3-43.2-43.2-43.2c-23.8,0-43.2,19.3-43.2,43.2c0,23.8,19.3,43.2,43.2,43.2
	C293.8,313.2,313.2,293.8,313.2,270 M271.7,294.9V270h8.2l1.3-8.3h-9.5v-4.1c0-2.2,0.7-4.2,3.8-4.2h6.2v-8.2h-8.8
	c-7.4,0-9.4,4.9-9.4,11.6v5h-5.1v8.3h5.1v24.9H271.7z"/>
</svg>
