<svg xmlns="http://www.w3.org/2000/svg" version="1.1" x="0" y="0" viewBox="108 178.8 288 146.5" enable-background="new 108 178.8 288 146.5" xml:space="preserve"><path fill="#85C446" d="M389.3 287v-89.5c0 0 0-12.4-12.4-12.4H127.1c0 0-12.4 0-12.4 12.4V287c0 0 0 12.4 12.3 14.2l112.7 16.9c0 0 12.3 1.8 24.6 0L377 301.2C377 301.2 389.3 299.4 389.3 287"/><path fill="#005373" d="M252.5 325.2L252.5 325.2c-8.2 0-14.3-0.9-14.6-1l-114.8-17.8c-15-2.3-15.1-17.4-15.1-17.6v-94.7c0-15.3 15.4-15.4 15.5-15.4h256.9c15.4 0 15.5 15.3 15.5 15.4v94.7c0 15-15 17.5-15.1 17.6l-114.8 17.8C261.9 324.9 257.3 325.2 252.5 325.2M123.5 181.9c-0.5 0-12.4 0.2-12.4 12.4v94.7c0 0.5 0.2 12.6 12.5 14.5l114.8 17.8c0.1 0 6.1 0.9 14.1 0.9h0c4.7 0 9.1-0.3 13.1-0.9l114.8-17.8c0.5-0.1 12.5-2.1 12.5-14.5v-94.7c0-0.5-0.2-12.4-12.4-12.4L123.5 181.9 123.5 181.9z"/><path fill="#005373" d="M135.2 260.9h12.6v-4.1h-8.2v-16h-4.4V260.9zM150 255.2c0.5 1.3 1.3 2.4 2.3 3.3 1 0.9 2.1 1.6 3.4 2.1 1.3 0.5 2.8 0.7 4.3 0.7 1.6 0 3-0.2 4.3-0.7 1.3-0.5 2.5-1.2 3.4-2.1 1-0.9 1.7-2 2.3-3.3 0.5-1.3 0.8-2.8 0.8-4.4 0-1.6-0.3-3.1-0.8-4.4 -0.5-1.3-1.3-2.4-2.3-3.3 -1-0.9-2.1-1.6-3.4-2.1s-2.8-0.7-4.3-0.7c-1.6 0-3 0.2-4.3 0.7 -1.3 0.5-2.5 1.2-3.4 2.1 -1 0.9-1.7 2-2.3 3.3 -0.5 1.3-0.8 2.8-0.8 4.4C149.2 252.4 149.4 253.9 150 255.2M154.2 248.2c0.3-0.8 0.7-1.5 1.3-2.1 0.5-0.6 1.2-1 2-1.3 0.8-0.3 1.6-0.5 2.6-0.5 0.9 0 1.8 0.2 2.6 0.5 0.8 0.3 1.4 0.8 2 1.3 0.5 0.6 1 1.3 1.3 2.1 0.3 0.8 0.4 1.7 0.4 2.6 0 0.9-0.1 1.8-0.4 2.6 -0.3 0.8-0.7 1.5-1.3 2 -0.5 0.6-1.2 1-2 1.3 -0.8 0.3-1.6 0.5-2.6 0.5 -0.9 0-1.8-0.2-2.6-0.5 -0.8-0.3-1.4-0.8-2-1.3 -0.5-0.6-1-1.3-1.3-2 -0.3-0.8-0.4-1.6-0.4-2.6C153.8 249.9 153.9 249 154.2 248.2M192 249h-7.9v4.1h3.6v3.3c-0.4 0.2-1 0.5-1.7 0.7 -0.7 0.2-1.5 0.3-2.5 0.3 -0.9 0-1.8-0.2-2.6-0.5 -0.8-0.3-1.4-0.8-2-1.3 -0.6-0.6-1-1.3-1.3-2 -0.3-0.8-0.4-1.6-0.4-2.6 0-0.9 0.1-1.8 0.4-2.6 0.3-0.8 0.7-1.5 1.3-2.1 0.5-0.6 1.2-1 2-1.3 0.8-0.3 1.6-0.5 2.6-0.5 1.1 0 2.1 0.2 2.8 0.5 0.8 0.3 1.4 0.8 2 1.4l3.1-3.4c-1-0.9-2.2-1.6-3.6-2 -1.4-0.4-2.8-0.6-4.4-0.6 -1.6 0-3 0.2-4.3 0.7 -1.3 0.5-2.5 1.2-3.4 2.1 -1 0.9-1.7 2-2.3 3.3 -0.5 1.3-0.8 2.8-0.8 4.4 0 1.6 0.3 3.1 0.8 4.4 0.5 1.3 1.3 2.4 2.3 3.3 1 0.9 2.1 1.6 3.4 2.1 1.3 0.5 2.8 0.7 4.3 0.7 1.5 0 2.9-0.2 4.3-0.5 1.4-0.3 2.8-0.8 4.1-1.5L192 249 192 249zM193.9 260.9h4.9l1.7-4.3h7.8l1.7 4.3h5l-8.7-20.1h-3.7L193.9 260.9zM206.7 252.9h-4.9l2.4-6.2L206.7 252.9zM216.9 260.9h4.4v-14.3h0.1l8.8 14.3h5.8v-20.1h-4.4v14h-0.1l-8.5-14h-6V260.9zM265 243.2c-0.4-0.5-0.9-1-1.5-1.4 -0.5-0.4-1.1-0.7-1.7-0.9s-1.2-0.4-1.8-0.5c-0.6-0.1-1.2-0.2-1.8-0.2 -1.6 0-3 0.2-4.3 0.7 -1.3 0.5-2.5 1.2-3.4 2.1 -1 0.9-1.7 2-2.3 3.3 -0.5 1.3-0.8 2.8-0.8 4.4 0 1.6 0.3 3.1 0.8 4.4 0.5 1.3 1.3 2.4 2.3 3.3 1 0.9 2.1 1.6 3.4 2.1 1.3 0.5 2.8 0.7 4.3 0.7 1.4 0 2.7-0.3 4-0.9 1.3-0.6 2.4-1.4 3.2-2.6l-3.7-2.8c-0.5 0.7-1 1.2-1.7 1.6 -0.7 0.4-1.5 0.6-2.4 0.6 -0.8 0-1.5-0.2-2.2-0.5 -0.7-0.3-1.3-0.8-1.8-1.3 -0.5-0.6-0.9-1.3-1.2-2 -0.3-0.8-0.4-1.6-0.4-2.6 0-0.9 0.1-1.8 0.4-2.6 0.3-0.8 0.7-1.5 1.2-2.1s1.1-1 1.8-1.3c0.7-0.3 1.5-0.5 2.3-0.5 0.8 0 1.6 0.1 2.2 0.4 0.6 0.3 1.2 0.7 1.6 1.2L265 243.2zM267.6 255.2c0.5 1.3 1.3 2.4 2.3 3.3 1 0.9 2.1 1.6 3.4 2.1 1.3 0.5 2.8 0.7 4.3 0.7 1.6 0 3-0.2 4.3-0.7 1.3-0.5 2.5-1.2 3.4-2.1 1-0.9 1.7-2 2.3-3.3 0.5-1.3 0.8-2.8 0.8-4.4 0-1.6-0.3-3.1-0.8-4.4 -0.5-1.3-1.3-2.4-2.3-3.3 -1-0.9-2.1-1.6-3.4-2.1 -1.3-0.5-2.8-0.7-4.3-0.7 -1.6 0-3 0.2-4.3 0.7 -1.3 0.5-2.5 1.2-3.4 2.1 -1 0.9-1.7 2-2.3 3.3 -0.5 1.3-0.8 2.8-0.8 4.4C266.8 252.4 267.1 253.9 267.6 255.2M271.8 248.2c0.3-0.8 0.7-1.5 1.3-2.1 0.5-0.6 1.2-1 2-1.3 0.8-0.3 1.6-0.5 2.6-0.5s1.8 0.2 2.6 0.5c0.8 0.3 1.4 0.8 2 1.3 0.5 0.6 1 1.3 1.3 2.1 0.3 0.8 0.4 1.7 0.4 2.6 0 0.9-0.1 1.8-0.4 2.6 -0.3 0.8-0.7 1.5-1.3 2 -0.5 0.6-1.2 1-2 1.3 -0.8 0.3-1.6 0.5-2.6 0.5s-1.8-0.2-2.6-0.5c-0.8-0.3-1.4-0.8-2-1.3 -0.5-0.6-1-1.3-1.3-2 -0.3-0.8-0.4-1.6-0.4-2.6C271.4 249.9 271.5 249 271.8 248.2M308.4 240.8H304V253c0 0.6-0.1 1.2-0.3 1.7 -0.2 0.5-0.5 1-0.8 1.4 -0.4 0.4-0.8 0.7-1.3 0.9 -0.5 0.2-1 0.3-1.6 0.3s-1.1-0.1-1.6-0.3c-0.5-0.2-0.9-0.5-1.3-0.9 -0.4-0.4-0.6-0.8-0.8-1.4 -0.2-0.5-0.3-1.1-0.3-1.7v-12.2h-4.4v12.3c0 1.2 0.2 2.3 0.5 3.3 0.4 1 0.9 1.9 1.6 2.6 0.7 0.7 1.6 1.3 2.7 1.7 1.1 0.4 2.3 0.6 3.7 0.6 1.4 0 2.6-0.2 3.7-0.6 1.1-0.4 1.9-1 2.7-1.7 0.7-0.7 1.2-1.6 1.6-2.6 0.4-1 0.5-2.1 0.5-3.3V240.8zM312.5 260.9h4.4v-14.3h0.1l8.8 14.3h5.8v-20.1h-4.4v14h-0.1l-8.5-14h-6V260.9zM339.5 260.9h4.4v-16.2h5.7v-3.9h-15.9v3.9h5.7L339.5 260.9 339.5 260.9zM356.8 260.9h4.4v-8.6l7.5-11.5h-5.2l-4.5 7.5 -4.3-7.5h-5.5l7.5 11.5V260.9z"/><path fill="#005373" d="M165.7 217.2h2.9c1.1 0 2.1 0.2 2.9 0.5 0.8 0.3 1.5 0.8 2.1 1.4s1 1.2 1.2 1.9c0.3 0.7 0.4 1.5 0.4 2.2s-0.1 1.5-0.4 2.2c-0.3 0.7-0.7 1.4-1.2 1.9 -0.6 0.6-1.2 1-2.1 1.4 -0.8 0.3-1.8 0.5-2.9 0.5h-2.9V217.2zM164.2 230.7h4.9c0.9 0 1.8-0.2 2.8-0.5 0.9-0.3 1.8-0.8 2.5-1.4 0.7-0.6 1.4-1.4 1.8-2.3 0.5-0.9 0.7-2 0.7-3.2 0-1.2-0.2-2.3-0.7-3.2 -0.5-0.9-1.1-1.7-1.8-2.3 -0.7-0.6-1.6-1.1-2.5-1.4 -0.9-0.3-1.9-0.5-2.8-0.5h-4.9V230.7zM185.6 223.7h7.2v-1.4h-7.2v-5h7.7v-1.4h-9.2v14.8h9.4v-1.4h-7.9V223.7zM209 217.3c-0.6-0.7-1.2-1.1-1.9-1.4 -0.7-0.3-1.4-0.4-2.3-0.4 -0.6 0-1.2 0.1-1.8 0.3 -0.6 0.2-1.1 0.4-1.5 0.8 -0.5 0.3-0.8 0.8-1.1 1.3s-0.4 1.2-0.4 1.9c0 0.7 0.1 1.3 0.3 1.7 0.2 0.5 0.5 0.8 0.9 1.1 0.4 0.3 0.8 0.5 1.2 0.7s0.9 0.4 1.4 0.5c0.5 0.2 0.9 0.3 1.4 0.5s0.9 0.3 1.2 0.6c0.4 0.2 0.6 0.5 0.9 0.9 0.2 0.3 0.3 0.8 0.3 1.3 0 0.4-0.1 0.8-0.3 1.2 -0.2 0.3-0.4 0.6-0.7 0.8s-0.6 0.4-1 0.5 -0.8 0.2-1.1 0.2c-0.8 0-1.5-0.2-2-0.5 -0.6-0.3-1-0.8-1.3-1.3l-1.4 1c0.6 0.8 1.3 1.3 2.1 1.7 0.8 0.3 1.7 0.5 2.6 0.5 0.6 0 1.2-0.1 1.7-0.3 0.6-0.2 1.1-0.5 1.6-0.8 0.5-0.4 0.8-0.8 1.1-1.4 0.3-0.5 0.4-1.1 0.4-1.8 0-0.9-0.2-1.6-0.6-2.1s-0.8-0.9-1.4-1.2c-0.6-0.3-1.2-0.6-1.8-0.8 -0.7-0.2-1.3-0.4-1.8-0.6 -0.6-0.2-1-0.5-1.4-0.9 -0.4-0.4-0.6-0.9-0.6-1.6 0-0.5 0.1-0.9 0.3-1.2 0.2-0.3 0.4-0.6 0.7-0.8 0.3-0.2 0.6-0.4 1-0.5 0.4-0.1 0.8-0.2 1.1-0.2 1.3 0 2.2 0.5 2.9 1.4L209 217.3zM221.2 217.2h5v-1.4h-11.4v1.4h5v13.4h1.5V217.2zM234.2 215.9h-1.5v14.8h1.5V215.9zM244.3 215.9h-1.9v14.8h1.5V218h0l8.8 12.7h1.9v-14.8h-1.5v12.6h0L244.3 215.9zM268.1 217.6l3.2 7.8h-6.4L268.1 217.6zM264.3 226.8h7.6l1.6 3.9h1.8l-6.4-14.8h-1.5l-6.4 14.8h1.8L264.3 226.8zM284.8 217.2h5v-1.4h-11.4v1.4h5v13.4h1.5V217.2zM297.7 215.9h-1.5v14.8h1.5V215.9zM318.3 225.7c-0.3 0.8-0.7 1.5-1.2 2 -0.5 0.6-1.2 1.1-1.9 1.4 -0.8 0.4-1.6 0.5-2.6 0.5 -1 0-1.8-0.2-2.6-0.5 -0.8-0.3-1.4-0.8-1.9-1.4 -0.5-0.6-0.9-1.3-1.2-2 -0.3-0.8-0.4-1.6-0.4-2.4s0.1-1.7 0.4-2.4c0.3-0.8 0.7-1.5 1.2-2 0.5-0.6 1.2-1.1 1.9-1.4 0.8-0.3 1.6-0.5 2.6-0.5 0.9 0 1.8 0.2 2.6 0.5s1.4 0.8 1.9 1.4c0.5 0.6 0.9 1.3 1.2 2 0.3 0.8 0.4 1.6 0.4 2.4S318.6 224.9 318.3 225.7M319.8 220.1c-0.4-0.9-0.9-1.8-1.6-2.5 -0.7-0.7-1.5-1.2-2.4-1.6 -0.9-0.4-2-0.6-3.1-0.6 -1.1 0-2.1 0.2-3.1 0.6 -0.9 0.4-1.8 0.9-2.4 1.6 -0.7 0.7-1.2 1.5-1.6 2.5 -0.4 0.9-0.6 2-0.6 3.1s0.2 2.2 0.6 3.1c0.4 0.9 0.9 1.8 1.6 2.5 0.7 0.7 1.5 1.2 2.4 1.6 0.9 0.4 2 0.6 3.1 0.6 1.1 0 2.1-0.2 3.1-0.6 0.9-0.4 1.8-0.9 2.4-1.6 0.7-0.7 1.2-1.5 1.6-2.5 0.4-0.9 0.6-2 0.6-3.1S320.2 221.1 319.8 220.1M329.5 215.9h-1.9v14.8h1.5V218h0l8.8 12.7h1.9v-14.8h-1.5v12.6h0L329.5 215.9z"/><path fill="#005373" d="M158.3 201.9c21.7-0.3 62.8-0.4 83-0.4l3 0c2.8 0 5.4 0 7.8 0 2.4 0 5 0 7.8 0l3 0c20.2 0 61.3 0.2 82.9 0.4 21.6 0.3 21.6 0.7 21.6 1.2 0 0.5 0 0.9-21.5 1.1 -21.8 0.3-64 0.4-84.7 0.4h-1.2c-2.9 0-5.5 0-7.9 0 -2.4 0-5 0-7.9 0h-1.2c-20.7 0-63-0.2-84.7-0.4 -21.5-0.3-21.5-0.6-21.5-1.1C136.8 202.6 136.8 202.2 158.3 201.9M174 282h-0.4c-7.2 0-21.8-0.2-29.3-0.4 -7.5-0.3-7.5-0.7-7.5-1.1 0-0.5 0-0.9 7.5-1.2 7.5-0.3 21.8-0.4 28.7-0.4l1 0c10.7 0 11.7 0.5 11.7 1.6C185.8 281.5 184.8 281.9 174 282M359.9 281.5c-7.5 0.3-22.2 0.4-29.3 0.4h-0.4c-10.8 0-11.8-0.4-11.8-1.6 0-1.2 1-1.6 11.7-1.6l1 0c7 0 21.2 0.2 28.7 0.4 7.5 0.3 7.5 0.7 7.5 1.2C367.4 280.9 367.4 281.2 359.9 281.5"/><path fill="#005373" d="M206.5 291.5c0 1.8 1.6 3 4.4 3 3.8 0 6.5-2.5 8.4-7.5 0.7-1.8 1.4-4.5 2.1-8.1 0.5-2.5 0.7-4.3 0.7-5.6 0-2.7-1-4-3.1-4 -1.5 0-3.5 1.1-5.5 3.5 -2.3 2.7-3.5 5.9-3.5 9.3 0 3.9 1.9 6.4 4.8 6.7 -0.9 1.8-2.4 2.8-4.2 2.8 -1.4 0-2.4-0.6-3-1.8C206.9 289.8 206.5 290.5 206.5 291.5M215.8 286.8c-1.6-0.3-2.5-1.5-2.5-3.5 0-2.4 0.7-5.3 2.2-8.2 1-1.9 1.9-2.9 2.5-2.9 0.4 0 0.6 0.3 0.6 0.9C218.6 274.5 218.1 279.3 215.8 286.8M220.3 290.9l-0.6 2c1.6-0.1 3.1-0.7 4.5-2 0.4 1.4 1.6 2 3.8 2h0.3l0 0c1.5-0.2 2.9-0.8 4.1-1.9 0.4 1.4 1.6 2 3.8 2h0.3l0 0c1.5-0.2 2.8-0.8 3.9-2.1 0.2 1.5 1.5 2.1 4.1 2.1h0.5l0 0c1.3-0.1 2.4-0.6 3.2-1.4 -0.2 0.5-0.3 0.8-0.3 1 0 0.4 0.3 0.5 1.1 0.5 2.3 0 1.8-0.3 3.1-3.3 2.3-5.3 5.3-7.7 6-7.7 0.4 0 0.5 0.2 0.5 0.5 0 0.3-0.3 1.1-0.9 2.3 -1.2 2.7-1.8 4.5-1.8 5.4 0 1.9 1.5 2.7 4.8 2.7h0.3l0 0c1.5-0.1 2.8-0.4 4-1 0.7 0.8 1.8 1.1 3.2 1.1 2 0 3.7-1.1 5.1-3.3 1.4-2.1 2.2-4.8 2.2-7.2 0-2-0.8-3.1-2.1-3.1 -1.3 0-2.1 1.1-2.1 2.5 0 1 0.5 1.6 1.5 1.7 -0.1 4.1-2.7 7.2-4.5 7.2 -0.9 0-1.4-0.6-1.4-1.7 0-2.2 1-4.9 3.2-7.6 1-1.2 1.8-1.7 1.8-2.2 0-0.3-0.2-0.5-0.7-0.5 -1.5 0-3.7 1-5.2 2.8 -1.6 1.9-2.5 4.4-2.5 6.6 0 0.7 0.1 1.5 0.4 2.2 -0.7 0.4-1.6 0.6-2.5 0.7 -1.4-0.1-1.9-0.3-1.9-1.1 0-0.3 0.2-1.4 0.8-2.8 1.3-3.1 2.1-5.1 2.1-6.3 0-1.2-0.7-1.9-2-1.9 -2.6 0-5.1 2.5-8.1 7.3 1.4-4.3 2.6-6.4 2.6-7 0-0.5-0.6-0.6-2.2-0.6 -1.8 0-1.4 1.3-2.8 6.4 -1.1 3.9-2.4 5.9-4.6 6 -1.4-0.1-1.9-0.3-1.9-1.2 0-0.5 0.2-1.2 0.6-2.2l1.4-4.4c0.6-1.9 1.3-3 1.3-3.8 0-0.4-0.4-0.7-1.2-0.7 -3.1 0-2.5 0.6-3.3 4 -1.4 5.4-2.9 8-5.3 8.2 -1.1-0.1-1.5-0.5-1.5-1.5 0-0.8 0.6-4.6 2.5-10.9 2.3-2.8 3.3-5.3 3.3-6.6 0-1.3-0.7-2.1-1.7-2.1 -1.7 0-2.7 1.8-3.8 5.2 -1.6 4.9-2.8 9.8-3.4 14.2 -1.4 1.2-2.5 1.9-3.6 1.9 -1.1-0.1-1.5-0.5-1.5-1.5 0-0.8 0.6-4.6 2.5-10.9 2.3-2.8 3.3-5.3 3.3-6.6 0-1.3-0.7-2.1-1.7-2.1 -1.7 0-2.7 1.8-3.8 5.2 -1.6 4.9-2.8 9.8-3.4 14.2C222.6 290.2 221.4 290.9 220.3 290.9M284.8 269.6c-1.3 0-2.4 1.1-2.4 2.7 0 1.2 0.6 1.8 1.8 1.8 1.4 0 2.4-1.1 2.4-2.6C286.6 270.4 285.8 269.6 284.8 269.6M247 269.6c-1.3 0-2.4 1.1-2.4 2.7 0 1.2 0.6 1.8 1.8 1.8 1.4 0 2.4-1.1 2.4-2.6C248.8 270.4 248 269.6 247 269.6M274.7 290.9l-0.6 2c1.7-0.1 3-0.7 4.2-2.1 0.2 1.5 1.5 2.1 4.1 2.1h0.5l0-0.1c1.2-0.2 2.3-0.6 3.1-1.3 0.9 0.9 2.4 1.4 4 1.4 1 0 2.1-0.2 3.3-0.7 1 0.5 2 0.7 3.1 0.7h0.4l0.6-2h-0.3c-0.8 0-1.4-0.1-1.9-0.4 0.9-1 1.5-2.6 1.5-4.2 0-1.9-0.9-3.4-2.5-5.3 1-0.8 1.5-1.7 1.5-2.5 0-0.9-0.6-1.5-1.6-1.5 -1.7 0-3.1 1.3-3.1 2.9 0 0.6 0.2 1 0.6 1.5 -3.6 6.1-6.8 9.2-8.5 9.5 -1.4-0.1-1.9-0.3-1.9-1.2 0-0.5 0.2-1.2 0.6-2.2l1.4-4.4c0.6-1.9 1.3-3 1.3-3.8 0-0.4-0.4-0.7-1.2-0.7 -3.1 0-2.5 0.6-3.3 4C278.7 288.1 277.2 290.8 274.7 290.9M288.5 289.1c2-2 3.4-4.1 4.1-5.7 0.3 1.1 0.6 2.1 0.6 3.1 0 2.3-1.2 3.9-3 4.3C289.9 290 289.3 289.4 288.5 289.1"/></svg>