<svg xmlns="http://www.w3.org/2000/svg" version="1.1" x="0" y="0" viewBox="162 162 216 216" enable-background="new 162 162 216 216" xml:space="preserve"><path fill="#D1D3D4" d="M270 162c-59.6 0-108 48.4-108 108s48.4 108 108 108c59.6 0 108-48.4 108-108S329.6 162 270 162zM327.5 331.4H318v-17.9h-96.3v17.9h-9.4v-65.5c0-2.6 2.1-4.7 4.7-4.7 2.6 0 4.7 2.1 4.7 4.7v38.7h105.7L327.5 331.4 327.5 331.4zM232.1 297.5c-2.3 0-4.2-1.9-4.2-4.2 0-2.3 1.9-4.2 4.2-4.2h17.5v-12.6c0-2.3 1.9-4.2 4.2-4.2 0.1 0 0.2 0.1 0.4 0.1l66.7 6.6c3.6 0.5 6.7 3 6.8 6.7l0 11.7L232.1 297.5 232.1 297.5zM227.7 276.2c0-4.7 3.8-8.5 8.5-8.5 4.7 0 8.5 3.8 8.5 8.5 0 4.7-3.8 8.5-8.5 8.5C231.5 284.7 227.7 280.9 227.7 276.2zM326.6 249.7L270 221.6l-56.6 28.1 -5.1-10.3 61.7-30.6 0-0.1 0.1 0 0.1 0 0 0.1 61.7 30.6L326.6 249.7z"/></svg>