<svg xmlns="http://www.w3.org/2000/svg" version="1.1" x="0" y="0" viewBox="226.8 316.8 612.7 612.7" enable-background="new 226.8 316.8 612.7 612.7" xml:space="preserve"><path fill="#808285" d="M533.2 316.8c-168.8 0-306.4 136.9-306.4 306.4 0 168.8 136.9 306.4 306.4 306.4 168.8 0 306.4-137.6 306.4-306.4S702.6 316.8 533.2 316.8zM533.2 901.1c-153.9 0-278-124.1-278-278s124.8-278 278-278c153.9 0 278 124.8 278 278C811.1 777 686.3 901.1 533.2 901.1zM422.3 474H644c21.1 0 38.3 15.6 38.3 38.3V734c0 22.7-17.1 38.3-38.3 38.3H422.3c-21.1 0-38.3-15.6-38.3-38.3V512.3C384 489.7 401.2 474 422.3 474L422.3 474zM601.4 507.1c-7.3 0-13.5 6.1-13.5 13.5v32.1c0 7.3 6.1 13.5 13.5 13.5h33.7c7.3 0 13.5-6.1 13.5-13.5v-32.1c0-7.3-6.1-13.5-13.5-13.5H601.4L601.4 507.1zM648.6 600.2h-26.3c2.4 8 4 16.8 4 25.7 0 49.6-41.6 89.7-92.8 89.7s-92.8-40.1-92.8-89.7c0-8.9 1.2-17.5 4-25.7h-27.3V726c0 6.4 5.2 11.9 11.9 11.9H637c6.4 0 11.9-5.2 11.9-11.9V600.2H648.6zM533.5 564.4c-33.1 0-60 26-60 58.2s26.9 58.2 60 58.2 60-26 60-58.2S566.5 564.4 533.5 564.4z"/></svg>