<svg xmlns="http://www.w3.org/2000/svg" version="1.1" x="0" y="0" viewBox="142.8 313 326.4 166" enable-background="new 142.8 313 326.4 166" xml:space="preserve"><path fill="#808285" d="M306.6 479L306.6 479c-9.3 0-16.2-1.1-16.5-1.1l-130.1-20.2c-17-2.6-17.1-19.7-17.1-19.9V330.5c0-17.3 17.4-17.5 17.6-17.5h291.2c17.4 0 17.6 17.3 17.6 17.5v107.3c0 17.1-17 19.9-17.1 19.9l-130.1 20.2C317.2 478.6 312.1 479 306.6 479M160.4 316.5c-0.6 0-14.1 0.2-14.1 14v107.3c0 0.6 0.2 14.3 14.2 16.5l130.1 20.2c0.1 0 6.9 1.1 16 1.1h0c5.3 0 10.3-0.4 14.8-1.1l130.1-20.2c0.6-0.1 14.2-2.4 14.2-16.5V330.5c0-0.6-0.2-14-14.1-14H160.4zM267.5 418.9c-0.7 0-1.7 1-2.9 3.2 -1.7 3.3-2.5 6.6-2.5 9.3 0 2.2 1 3.6 2.8 4 2.6-8.5 3.2-14 3.2-15.6C268.2 419.3 267.9 418.9 267.5 418.9zM347.4 438.1c0.9 0.3 1.5 1 1.9 2 2.1-0.4 3.4-2.2 3.4-4.9 0-1.1-0.2-2.3-0.6-3.6C351.2 433.5 349.6 435.8 347.4 438.1zM206.9 389.4c-0.6-0.7-1.4-1.2-2.2-1.5s-1.8-0.5-2.9-0.5c-1.1 0-2 0.2-2.9 0.5 -0.9 0.4-1.6 0.9-2.2 1.5 -0.6 0.7-1.1 1.4-1.4 2.3 -0.3 0.9-0.5 1.9-0.5 2.9 0 1.1 0.2 2.1 0.5 2.9 0.3 0.9 0.8 1.7 1.4 2.3 0.6 0.7 1.4 1.2 2.2 1.5 0.9 0.4 1.8 0.5 2.9 0.5 1.1 0 2-0.2 2.9-0.5 0.9-0.4 1.6-0.9 2.2-1.5 0.6-0.7 1.1-1.4 1.4-2.3 0.3-0.9 0.5-1.9 0.5-2.9 0-1-0.2-2-0.5-2.9C208 390.8 207.5 390.1 206.9 389.4zM249.1 397h5.6l-2.8-7.1L249.1 397zM340.2 389.4c-0.6-0.7-1.4-1.2-2.2-1.5 -0.9-0.4-1.8-0.5-2.9-0.5s-2 0.2-2.9 0.5c-0.9 0.4-1.6 0.9-2.2 1.5 -0.6 0.7-1.1 1.4-1.4 2.3 -0.3 0.9-0.5 1.9-0.5 2.9 0 1.1 0.2 2.1 0.5 2.9 0.3 0.9 0.8 1.7 1.4 2.3 0.6 0.7 1.4 1.2 2.2 1.5 0.9 0.4 1.8 0.5 2.9 0.5s2-0.2 2.9-0.5c0.9-0.4 1.6-0.9 2.2-1.5 0.6-0.7 1.1-1.4 1.4-2.3 0.3-0.9 0.5-1.9 0.5-2.9 0-1-0.2-2-0.5-2.9C341.3 390.8 340.8 390.1 340.2 389.4zM218.6 366c0.3-0.8 0.4-1.7 0.4-2.5 0-0.9-0.2-1.7-0.4-2.5 -0.3-0.8-0.8-1.5-1.4-2.2 -0.6-0.6-1.4-1.2-2.4-1.5 -0.9-0.4-2.1-0.6-3.3-0.6h-3.3v13.7h3.3c1.3 0 2.4-0.2 3.3-0.6 0.9-0.4 1.7-0.9 2.4-1.5C217.8 367.5 218.3 366.8 218.6 366zM320.5 365.9h7.3l-3.6-8.8L320.5 365.9zM447.5 320.3H164.5c0 0-14.1 0-14.1 14v101.4c0 0 0 14 13.9 16.1l127.8 19.2c0 0 13.9 2.1 27.9 0l127.8-19.2c0 0 13.9-2.1 13.9-16.1V334.3C461.6 334.3 461.6 320.3 447.5 320.3zM199.8 339.3c24.5-0.3 71.2-0.5 94-0.5l3.3 0c3.2 0 6.2 0 8.9 0 2.7 0 5.6 0 8.9 0l3.3 0c22.8 0 69.5 0.2 94 0.5 24.5 0.3 24.5 0.7 24.5 1.4 0 0.6 0 1-24.3 1.3 -24.7 0.3-72.5 0.5-96 0.5H315c-3.2 0-6.2 0-8.9 0 -2.7 0-5.7 0-8.9 0h-1.4c-23.5 0-71.4-0.2-96-0.5 -24.3-0.3-24.3-0.7-24.3-1.3C175.4 340 175.4 339.6 199.8 339.3zM405.5 355v16.8h-2.1l-10-14.4h0v14.4h-1.7V355h2.1l10 14.2h0V355H405.5L405.5 355zM357.8 355v16.8h-1.7V355H357.8L357.8 355zM343.9 403.4c-1.1 1-2.4 1.8-3.9 2.4 -1.5 0.6-3.1 0.8-4.9 0.8 -1.8 0-3.4-0.3-4.9-0.8 -1.5-0.6-2.8-1.4-3.9-2.4 -1.1-1-1.9-2.3-2.6-3.8 -0.6-1.5-0.9-3.1-0.9-5 0-1.8 0.3-3.5 0.9-5 0.6-1.5 1.5-2.7 2.6-3.8 1.1-1 2.4-1.8 3.9-2.4 1.5-0.6 3.1-0.8 4.9-0.8 1.8 0 3.4 0.3 4.9 0.8 1.5 0.6 2.8 1.4 3.9 2.4 1.1 1 1.9 2.3 2.6 3.8 0.6 1.5 0.9 3.1 0.9 5 0 1.8-0.3 3.5-0.9 5C345.8 401.1 345 402.4 343.9 403.4zM345.2 418.1c0 1.7-1.2 3-2.7 3 -1.3 0-2.1-0.7-2.1-2.1 0-1.7 1.3-3 2.7-3C344.3 415.9 345.2 416.8 345.2 418.1zM300.3 415.9c1.2 0 2.1 0.9 2.1 2.1 0 1.7-1.2 3-2.7 3 -1.3 0-2.1-0.7-2.1-2.1C297.7 417.2 298.9 415.9 300.3 415.9zM296.9 357.5L296.9 357.5l0 14.4h-1.7V355h2.1l10 14.2h0V355h1.7v16.8h-2.1L296.9 357.5zM301.7 399.6c-0.6-1.5-0.9-3.1-0.9-5 0-1.8 0.3-3.5 0.9-5 0.6-1.5 1.5-2.7 2.6-3.8 1.1-1 2.4-1.8 3.9-2.4 1.5-0.6 3.1-0.8 4.9-0.8 0.6 0 1.3 0.1 2 0.2 0.7 0.1 1.4 0.3 2.1 0.6 0.7 0.3 1.3 0.6 1.9 1 0.6 0.4 1.2 1 1.7 1.6l-3.9 3.1c-0.5-0.6-1.1-1.1-1.8-1.4 -0.7-0.3-1.5-0.5-2.5-0.5 -0.9 0-1.8 0.2-2.6 0.5 -0.8 0.4-1.5 0.9-2.1 1.5 -0.6 0.7-1 1.4-1.4 2.3 -0.3 0.9-0.5 1.9-0.5 2.9 0 1.1 0.2 2.1 0.5 2.9 0.3 0.9 0.8 1.7 1.4 2.3 0.6 0.7 1.3 1.2 2 1.5s1.6 0.5 2.5 0.5c1 0 1.9-0.2 2.7-0.6 0.8-0.4 1.4-1 2-1.8l4.2 3.1c-1 1.3-2.2 2.3-3.7 3 -1.5 0.6-3 1-4.6 1 -1.8 0-3.4-0.3-4.9-0.8 -1.5-0.6-2.8-1.4-3.9-2.4C303.1 402.4 302.3 401.1 301.7 399.6zM319.9 367.4l-1.9 4.4h-2l7.3-16.8h1.7l7.3 16.8h-2l-1.9-4.4L319.9 367.4 319.9 367.4zM343.1 356.6v15.2h-1.7v-15.2h-5.6V355h13v1.6H343.1zM263.8 356.6V355h13v1.6h-5.6v15.2h-1.7v-15.2H263.8zM266.3 383.3h6.8l9.7 15.8h0.1v-15.8h5v22.8h-6.6l-9.9-16.2h-0.1v16.2h-5V383.3L266.3 383.3zM284.1 371.8V355h1.7v16.8H284.1zM255.3 366.2c-0.2-0.4-0.6-0.7-1-1 -0.4-0.3-0.9-0.5-1.4-0.7 -0.5-0.2-1-0.3-1.6-0.5 -0.5-0.2-1.1-0.4-1.6-0.6 -0.5-0.2-1-0.5-1.4-0.8 -0.4-0.3-0.7-0.8-1-1.3 -0.2-0.5-0.4-1.2-0.4-1.9 0-0.8 0.2-1.5 0.5-2.1 0.3-0.6 0.7-1.1 1.2-1.5 0.5-0.4 1.1-0.7 1.7-0.9 0.6-0.2 1.3-0.3 2-0.3 1 0 1.8 0.2 2.6 0.4 0.8 0.3 1.5 0.8 2.2 1.6l-1.5 1.2c-0.7-1.1-1.8-1.6-3.3-1.6 -0.4 0-0.9 0.1-1.3 0.2 -0.4 0.1-0.8 0.3-1.2 0.5 -0.3 0.2-0.6 0.6-0.8 0.9 -0.2 0.4-0.3 0.8-0.3 1.4 0 0.8 0.2 1.3 0.6 1.8 0.4 0.4 1 0.8 1.6 1 0.6 0.3 1.3 0.5 2.1 0.7 0.8 0.2 1.4 0.5 2.1 0.9 0.6 0.4 1.2 0.8 1.6 1.4 0.4 0.6 0.6 1.4 0.6 2.4 0 0.8-0.2 1.4-0.5 2.1 -0.3 0.6-0.8 1.1-1.3 1.5 -0.5 0.4-1.1 0.7-1.8 0.9 -0.7 0.2-1.3 0.3-2 0.3 -1 0-2-0.2-2.9-0.6 -0.9-0.4-1.7-1-2.4-1.9l1.6-1.1c0.4 0.6 0.9 1.1 1.5 1.5 0.6 0.4 1.4 0.6 2.3 0.6 0.4 0 0.9-0.1 1.3-0.2 0.4-0.1 0.8-0.3 1.1-0.6 0.3-0.3 0.6-0.6 0.8-1 0.2-0.4 0.3-0.8 0.3-1.3C255.7 367 255.6 366.6 255.3 366.2zM212 371.8h-5.6V355h5.6c1 0 2.1 0.2 3.1 0.5 1.1 0.3 2 0.9 2.8 1.6 0.8 0.7 1.5 1.6 2.1 2.6 0.5 1.1 0.8 2.3 0.8 3.7 0 1.4-0.3 2.6-0.8 3.7 -0.5 1-1.2 1.9-2.1 2.6 -0.8 0.7-1.8 1.2-2.8 1.6C214.1 371.7 213.1 371.8 212 371.8zM214 394.7c0 1.8-0.3 3.5-0.9 5 -0.6 1.5-1.5 2.7-2.6 3.8 -1.1 1-2.4 1.8-3.9 2.4 -1.5 0.6-3.1 0.8-4.9 0.8 -1.8 0-3.4-0.3-4.9-0.8 -1.5-0.6-2.8-1.4-3.9-2.4 -1.1-1-1.9-2.3-2.6-3.8 -0.6-1.5-0.9-3.1-0.9-5 0-1.8 0.3-3.5 0.9-5 0.6-1.5 1.5-2.7 2.6-3.8 1.1-1 2.4-1.8 3.9-2.4 1.5-0.6 3.1-0.8 4.9-0.8 1.8 0 3.4 0.3 4.9 0.8 1.5 0.6 2.8 1.4 3.9 2.4 1.1 1 1.9 2.3 2.6 3.8C213.7 391.2 214 392.8 214 394.7zM173.6 383.3h5v18.1h9.3v4.6h-14.3V383.3zM217.6 430h-0.5c-8.1 0-24.7-0.2-33.3-0.5 -8.5-0.3-8.5-0.7-8.5-1.3 0-0.6 0-1 8.6-1.4 8.5-0.3 24.7-0.5 32.6-0.5l1.2 0c12.2 0 13.3 0.5 13.3 1.8C231 429.5 229.9 429.9 217.6 430zM238 404.4c-1.5 0.8-3 1.3-4.6 1.7 -1.6 0.3-3.2 0.5-4.9 0.5 -1.8 0-3.4-0.3-4.9-0.8 -1.5-0.6-2.8-1.4-3.9-2.4 -1.1-1-1.9-2.3-2.6-3.8 -0.6-1.5-0.9-3.1-0.9-5 0-1.8 0.3-3.5 0.9-5 0.6-1.5 1.5-2.7 2.6-3.8 1.1-1 2.4-1.8 3.9-2.4 1.5-0.6 3.1-0.8 4.9-0.8 1.8 0 3.5 0.2 5 0.7 1.5 0.4 2.9 1.2 4 2.3l-3.5 3.9c-0.7-0.7-1.5-1.2-2.3-1.6 -0.9-0.4-1.9-0.5-3.2-0.5 -1.1 0-2 0.2-2.9 0.5s-1.6 0.9-2.2 1.5c-0.6 0.7-1.1 1.4-1.4 2.3 -0.3 0.9-0.5 1.9-0.5 2.9 0 1.1 0.2 2.1 0.5 2.9 0.3 0.9 0.8 1.7 1.4 2.3 0.6 0.7 1.4 1.2 2.2 1.5 0.9 0.4 1.8 0.5 2.9 0.5 1.1 0 2-0.1 2.8-0.4s1.4-0.5 1.9-0.8v-3.7h-4.1v-4.6h8.9L238 404.4 238 404.4zM239.7 371.8H229V355h10.4v1.6h-8.7v5.7h8.1v1.6h-8.1v6.4h9L239.7 371.8 239.7 371.8zM245.6 406.1h-5.5l9.8-22.8h4.1l9.9 22.8h-5.7l-2-4.8h-8.8L245.6 406.1zM259.4 444.2c-3.2 0-5-1.4-5-3.4 0-1.1 0.5-1.9 1.2-2 0.7 1.4 1.8 2.1 3.4 2.1 2.1 0 3.8-1.1 4.8-3.1 -3.3-0.3-5.4-3.2-5.4-7.6 0-3.8 1.4-7.4 4-10.5 2.3-2.6 4.5-3.9 6.2-3.9 2.4 0 3.5 1.5 3.5 4.5 0 1.5-0.3 3.5-0.8 6.3 -0.8 4.1-1.6 7.1-2.4 9.2C266.8 441.4 263.7 444.2 259.4 444.2zM324.5 442.4c-1.6 0-2.8-0.4-3.6-1.3 -1.5 0.7-2.9 1.1-4.6 1.2l0 0h-0.4c-3.7 0-5.4-0.9-5.4-3.1 0-1 0.7-3 2-6.1 0.6-1.4 1-2.3 1-2.6 0-0.4-0.2-0.6-0.6-0.6 -0.8 0-4.2 2.7-6.8 8.7 -1.4 3.3-0.8 3.7-3.5 3.7 -0.9 0-1.2-0.1-1.2-0.6 0-0.2 0.1-0.6 0.4-1.1 -0.9 1-2.1 1.5-3.6 1.6l0 0h-0.6c-2.9 0-4.3-0.7-4.6-2.4 -1.3 1.5-2.7 2.2-4.4 2.4l0 0h-0.4c-2.5 0-3.9-0.7-4.3-2.2 -1.4 1.3-3 2-4.7 2.2l0 0.1h-0.4c-2.5 0-3.9-0.7-4.3-2.2 -1.5 1.4-3.2 2.1-5 2.2l0.7-2.3c1.2 0 2.5-0.7 4.1-2.2 0.7-5 2.1-10.6 3.9-16.1 1.3-3.8 2.4-5.8 4.3-5.8 1.1 0 1.9 1 1.9 2.4 0 1.5-1.1 4.3-3.7 7.5 -2.2 7.2-2.9 11.5-2.9 12.4 0 1.2 0.5 1.7 1.7 1.7 1.2 0 2.5-0.8 4.1-2.1 0.7-5 2.1-10.6 3.9-16.1 1.3-3.8 2.4-5.8 4.4-5.8 1.1 0 1.9 1 1.9 2.4 0 1.5-1.1 4.3-3.7 7.5 -2.2 7.2-2.9 11.5-2.9 12.4 0 1.2 0.5 1.7 1.7 1.7 2.8-0.2 4.5-3.2 6-9.3 1-3.9 0.2-4.6 3.8-4.6 0.9 0 1.4 0.3 1.4 0.8 0 0.8-0.7 2.2-1.4 4.3l-1.6 4.9c-0.4 1.2-0.7 2-0.7 2.5 0 1 0.6 1.2 2.2 1.3 2.4-0.2 3.9-2.4 5.2-6.8 1.6-5.7 1.1-7.2 3.2-7.2 1.7 0 2.5 0.2 2.5 0.7 0 0.7-1.3 3.1-2.9 8 3.4-5.5 6.2-8.2 9.1-8.2 1.5 0 2.3 0.8 2.3 2.2 0 1.3-1 3.5-2.4 7.1 -0.7 1.7-0.9 2.8-0.9 3.2 0 0.9 0.6 1.1 2.2 1.2 1.1-0.1 2-0.3 2.9-0.8 -0.3-0.8-0.4-1.7-0.4-2.5 0-2.5 1.1-5.4 2.9-7.5 1.7-2 4.1-3.1 5.8-3.1 0.5 0 0.8 0.2 0.8 0.6 0 0.6-1 1.2-2.1 2.5 -2.4 3.1-3.6 6.2-3.6 8.7 0 1.3 0.6 2 1.6 2 2.1 0 5-3.5 5.1-8.2 -1.1-0.2-1.7-0.8-1.7-1.9 0-1.6 1-2.8 2.4-2.8 1.5 0 2.4 1.2 2.4 3.5 0 2.7-0.9 5.7-2.5 8.1C328.7 441.2 326.7 442.4 324.5 442.4zM356.9 442.4h-0.5c-1.3 0-2.4-0.2-3.6-0.8 -1.4 0.6-2.7 0.8-3.8 0.8 -1.8 0-3.4-0.6-4.5-1.6 -1 0.8-2.2 1.3-3.6 1.5l0 0.1h-0.6c-2.9 0-4.3-0.7-4.6-2.4 -1.4 1.6-2.9 2.3-4.8 2.4l0.7-2.3c2.8-0.1 4.5-3.1 6.1-9.3 1-3.9 0.2-4.6 3.8-4.6 0.9 0 1.4 0.3 1.4 0.8 0 0.8-0.7 2.2-1.4 4.3l-1.6 4.9c-0.4 1.2-0.7 2-0.7 2.5 0 1 0.6 1.2 2.2 1.3 2-0.3 5.5-3.8 9.6-10.7 -0.5-0.5-0.6-1-0.6-1.7 0-1.8 1.6-3.2 3.5-3.2 1.1 0 1.8 0.7 1.8 1.7 0 1-0.6 1.9-1.7 2.9 1.8 2.1 2.8 3.8 2.8 6 0 1.8-0.7 3.6-1.7 4.7 0.6 0.3 1.3 0.4 2.1 0.4h0.3L356.9 442.4zM369.9 397.3c0 1.3-0.2 2.6-0.6 3.7 -0.4 1.1-1 2.1-1.8 3 -0.8 0.8-1.8 1.5-3 2 -1.2 0.5-2.6 0.7-4.1 0.7 -1.6 0-3-0.2-4.2-0.7 -1.2-0.5-2.2-1.1-3-2 -0.8-0.8-1.4-1.8-1.8-3 -0.4-1.1-0.6-2.4-0.6-3.7v-14h5v13.8c0 0.7 0.1 1.4 0.3 2 0.2 0.6 0.5 1.1 0.9 1.6 0.4 0.4 0.9 0.8 1.5 1 0.6 0.2 1.2 0.4 1.8 0.4 0.7 0 1.3-0.1 1.8-0.4 0.6-0.2 1-0.6 1.4-1 0.4-0.4 0.7-1 0.9-1.6 0.2-0.6 0.3-1.3 0.3-2v-13.8h5V397.3zM368.5 369.8c-0.8-0.8-1.4-1.7-1.8-2.8 -0.4-1.1-0.7-2.3-0.7-3.5s0.2-2.5 0.7-3.5c0.4-1.1 1.1-2 1.8-2.8 0.8-0.8 1.7-1.4 2.8-1.8 1.1-0.4 2.2-0.7 3.5-0.7 1.3 0 2.4 0.2 3.5 0.7 1.1 0.4 2 1.1 2.8 1.8 0.8 0.8 1.4 1.7 1.8 2.8 0.4 1.1 0.7 2.3 0.7 3.5s-0.2 2.5-0.7 3.5c-0.4 1.1-1.1 2-1.8 2.8 -0.8 0.8-1.7 1.4-2.8 1.8 -1.1 0.4-2.2 0.7-3.5 0.7 -1.3 0-2.4-0.2-3.5-0.7C370.2 371.2 369.3 370.5 368.5 369.8zM379.6 389.8v16.2h-5v-22.8h6.8l9.7 15.8h0.1v-15.8h5v22.8h-6.6L379.6 389.8 379.6 389.8zM428.2 429.5c-8.5 0.3-25.1 0.5-33.3 0.5h-0.5c-12.2 0-13.3-0.5-13.3-1.8 0-1.3 1.1-1.8 13.3-1.8l1.2 0c7.9 0 24.1 0.2 32.6 0.5 8.6 0.3 8.6 0.8 8.6 1.4C436.8 428.7 436.8 429.1 428.2 429.5zM429.8 396.3v9.7h-5v-9.7l-8.1-12.4v3.8h-6.5v18.3h-5v-18.3h-6.5v-4.4h17.6 0.4 5.8l4.8 8.5 5.1-8.5h5.9L429.8 396.3zM377.6 370.1c0.9-0.4 1.6-0.9 2.2-1.6 0.6-0.7 1-1.4 1.4-2.3 0.3-0.9 0.5-1.8 0.5-2.8 0-1-0.2-1.9-0.5-2.8 -0.3-0.9-0.8-1.6-1.4-2.3 -0.6-0.7-1.3-1.2-2.2-1.6 -0.9-0.4-1.8-0.6-2.9-0.6 -1.1 0-2 0.2-2.9 0.6 -0.9 0.4-1.6 0.9-2.2 1.6 -0.6 0.7-1.1 1.4-1.4 2.3 -0.3 0.9-0.5 1.8-0.5 2.8 0 1 0.2 1.9 0.5 2.8 0.3 0.9 0.8 1.6 1.4 2.3 0.6 0.7 1.3 1.2 2.2 1.6 0.9 0.4 1.8 0.6 2.9 0.6C375.8 370.7 376.8 370.5 377.6 370.1z"/></svg>