<svg xmlns="http://www.w3.org/2000/svg" version="1.1" x="0px" y="0px" viewBox="9.3 15.6 521.5 508.9" enable-background="new 9.3 15.6 521.5 508.9" xml:space="preserve"><polygon fill="#E4D1C3" points="490,69.2 10.8,233.6 50.5,469.1 529,304.5  "/><polygon fill="#004D71" points="24.8,242.2 479.7,85.3 514.9,296.1 60.1,453  "/><path fill="#FFFFFF" d="M13 235.1l38.8 232.1L527 303.2 488.2 71.1 13 235.1zM9.3 232.9L490.8 66.8 530.5 304l0.2 1.4L49.2 471.5 9.3 232.9z"/><path fill="#004D71" d="M390.9 54.8c-8.7-41.5 76.4-39.2 76.4-39.2l9.5 56.6 -68.3 13L390.9 54.8z"/><path fill="#FFFFFF" d="M398.6 101l-7.9-47.3c15.9 29.3 67.2 20 96 15.9L398.6 101z"/><path fill="#004D71" d="M144.5 485.2c8.7 41.5-76.4 39.2-76.4 39.2l-9.5-56.6 68.3-13L144.5 485.2z"/><path fill="#FFFFFF" d="M136.8 439l7.9 47.3c-15.9-29.3-67.2-20-96-15.9L136.8 439z"/><path fill="#FFFFFF" d="M88.8 328.3c1.9-0.6 3.2 0 4.3 1.6l17.7 27.5c0.6 1 1.4 0.7 1.2-0.4l-3.1-32.5c-0.2-1.9 0.5-3.3 2.3-3.9l21.3-7.4c2.1-0.7 3.4 0 4.2 2l22.9 66c0.7 2 0 3.4-2 4.2l-11.5 4c-2 0.7-3.5-0.1-4.2-2l-14.1-40.6c-0.2-0.7-1.2-0.5-1.2 0.3l4.3 44.6c0.2 1.9-0.6 3.2-2.5 3.9l-6.8 2.4c-1.9 0.6-3.3 0.1-4.3-1.5l-24.3-37.7c-0.5-0.6-1.3-0.2-1.1 0.5l14.1 40.6c0.7 2 0 3.4-2 4.2l-11.5 4c-2.1 0.7-3.5-0.1-4.2-2l-22.9-66c-0.7-2.1 0-3.4 2-4.2L88.8 328.3z"/><path fill="#FFFFFF" d="M189 325.7c-2.8-7.9-4.9-12.6-12.6-10s-6.5 7.7-3.7 15.6l5.1 14.8c2.8 7.9 4.9 12.6 12.6 10 7.6-2.6 6.5-7.7 3.7-15.6L189 325.7zM213.7 339.9c2.4 6.8 7.2 25.6-17.2 34 -24.4 8.5-32.2-9.3-34.6-16.1l-8.9-25.8c-2.4-6.8-7.2-25.6 17.2-34 24.4-8.5 32.2 9.3 34.6 16.1L213.7 339.9z"/><path fill="#FFFFFF" d="M230.5 279.3c1.9-0.6 3.2 0 4.3 1.6l17.7 27.4c0.6 1 1.4 0.7 1.2-0.4l-3.1-32.5c-0.2-1.9 0.5-3.3 2.3-3.9l21.3-7.4c2.1-0.7 3.5 0 4.2 2l22.9 65.9c0.7 2 0 3.4-2 4.2l-11.5 4c-2 0.7-3.5-0.1-4.2-2l-14.1-40.6c-0.2-0.7-1.2-0.5-1.2 0.3l4.3 44.6c0.2 1.9-0.6 3.2-2.5 3.9l-6.8 2.4c-1.9 0.6-3.3 0.1-4.3-1.5l-24.3-37.6c-0.5-0.6-1.3-0.2-1.1 0.5l14.1 40.6c0.7 2 0 3.4-2 4.2l-11.5 4c-2.1 0.7-3.5-0.1-4.2-2l-22.9-65.9c-0.7-2.1 0-3.4 2-4.2L230.5 279.3z"/><path fill="#FFFFFF" d="M334.1 243.3c2.1-0.7 3.4 0 4.2 2l4 11.5c0.7 2 0 3.5-2 4.2l-24.9 8.6c-2 0.7-2.7 2.1-2 4.2l1.1 3.3c0.7 2 2.2 2.7 4.2 2l16-5.5c2.1-0.7 3.5 0 4.2 2l4 11.5c0.7 2 0 3.4-2 4.2l-16 5.5c-2 0.7-2.7 2.1-2 4.2l1.1 3.3c0.7 2 2.2 2.7 4.2 2l24.9-8.6c2.1-0.7 3.4 0 4.2 2l4 11.5c0.7 2.1 0 3.5-2 4.2l-43.3 15c-2 0.7-3.5-0.1-4.2-2l-22.9-66c-0.7-2.1 0.1-3.5 2-4.2L334.1 243.3z"/><path fill="#FFFFFF" d="M363.4 233.2c1.8-0.6 3.1-0.3 4.4 1.1l25.9 29.5c0.7 0.8 1.5 0.3 1.1-0.7l-11.5-33.3c-0.7-2.1 0.1-3.5 2-4.2l11.5-4c2.1-0.7 3.4 0 4.2 2l22.9 66c0.7 2 0 3.5-2 4.2l-15.2 5.3c-1.8 0.6-3.1 0.3-4.4-1.1l-25.9-29.5c-0.7-0.8-1.5-0.3-1.1 0.7l11.5 33.3c0.7 2 0 3.5-2 4.2l-11.5 4c-2 0.7-3.5-0.1-4.2-2l-22.9-66c-0.7-2.1 0.1-3.5 2-4.2L363.4 233.2z"/><path fill="#FFFFFF" d="M434 232c-0.7-2.1-2.1-2.7-4.2-2l-14.4 5c-2 0.7-3.5-0.1-4.2-2l-4-11.5c-0.7-2.1 0.1-3.5 2-4.2L462 199c2.1-0.7 3.4 0 4.2 2l4 11.5c0.7 2 0 3.4-2 4.2l-14.4 5c-2 0.7-2.7 2.1-2 4.2l16.7 48.2c0.7 2 0 3.5-2 4.2l-11.5 4c-2 0.7-3.5-0.1-4.2-2L434 232z"/><path fill="none" stroke="#E4D1C3" stroke-width="4.082" stroke-linecap="round" stroke-miterlimit="10" d="M57.8 323.9l410.6-142.4M86.7 424.4L497.3 282"/><path fill="#FFFFFF" d="M128.6 248.9c-0.1 0.7-0.3 1.4-0.7 1.9 -0.4 0.5-1 0.9-1.7 1.1 -1.4 0.5-2.7 0.3-3.9-0.6 -1.2-0.9-2.1-2.4-2.9-4.5 -1.5-4.4-1.5-8.6 0.2-12.6 1.6-4.1 4.3-6.7 8.1-8.1 2.6-0.9 4.9-1 6.8-0.2 1.9 0.8 3.3 2.3 4.1 4.6 0.4 1.3 0.8 3 1 5.2s0.4 5 0.5 8.5c1.6-8.7 3.2-15 5-18.9 1.8-3.9 4-6.3 6.7-7.2 1.6-0.6 3.1-0.5 4.3 0.2 1.3 0.7 2.2 2 2.8 3.8 0.8 2.3 0.9 7.1 0.2 14.4l-0.2 1.6c2.2-8.9 4.4-15.5 6.5-19.8 2.1-4.2 4.6-6.8 7.3-7.8 1.5-0.5 2.9-0.4 4.2 0.2 1.3 0.7 2.2 1.8 2.8 3.4 0.8 2.3 0.9 7.5 0.4 15.9l-0.1 2 -0.1 1.2c-0.5 8.4-0.5 13.3-0.1 14.6 0.4 1.2 1.2 2 2.2 2.3 1 0.3 2.5 0.1 4.4-0.5l0.2 4 -0.8 0.3c-3.6 1.3-6.4 1.6-8.5 1 -2.1-0.6-3.5-2.2-4.4-4.8 -0.8-2.3-0.8-8.2-0.1-17.9 0.1-2 0.3-3.6 0.3-4.7l0.1-0.7c0.3-4.3 0.3-7 0-7.8 -0.1-0.4-0.4-0.7-0.7-0.9 -0.4-0.2-0.7-0.2-1.1-0.1 -1.4 0.5-3.2 3.7-5.4 9.6 -2.2 5.9-3.8 12.5-4.7 19.7 -0.3 2.2-0.6 4.5-0.7 6.8 -0.2 2.3-0.3 4.6-0.4 6.9 0 0.9-0.2 1.6-0.6 2 -0.4 0.4-1.1 0.8-2.1 1.1 -1.6 0.5-2.8 0.8-3.6 0.8 -0.8 0-1.4-0.3-1.5-0.8 -0.1-0.3 0-2.2 0.3-5.6 0.2-2.8 0.4-5 0.6-6.9 0.5-6.8 0.8-12.3 0.9-16.7 0.1-4.4-0.1-7.1-0.4-8.1 -0.2-0.6-0.5-1-1-1.2 -0.5-0.3-0.9-0.3-1.4-0.1 -1.7 0.6-3.5 3.5-5.1 8.6 -1.7 5.1-2.9 11.4-3.6 18.8 -0.3 2.8-0.4 5.8-0.5 9.1 -0.1 3.3-0.1 5.2-0.2 5.6 -0.1 1-0.3 1.6-0.6 2 -0.4 0.3-1.2 0.7-2.4 1.2 -1.3 0.5-2.3 0.7-3.1 0.6 -0.8 0-1.3-0.3-1.5-0.8 -0.2-0.5-0.2-2.6 0.1-6.3 0.2-3.7 0.4-6.9 0.4-9.5 0.1-4.2 0.1-8.2-0.3-11.8 -0.3-3.6-0.7-6.2-1.3-7.7 -0.4-1.3-1.1-2.1-1.9-2.6 -0.9-0.5-1.8-0.5-3-0.1 -1.9 0.7-3.2 2.2-3.9 4.6s-0.6 4.9 0.3 7.6c0.4 1.1 0.9 2.1 1.6 2.9C127 248.1 127.8 248.6 128.6 248.9"/><path fill="#FFFFFF" d="M205.6 224.2c-0.6-0.2-1.2-0.3-1.8-0.3 -0.5 0-1.1 0.1-1.6 0.2 -1.1 0.4-2.1 1.3-3.2 2.7 -1.1 1.4-2 3.1-2.7 5.2 -0.7 1.9-1 3.8-1.1 5.7 -0.1 1.9 0.1 3.4 0.5 4.7 0.3 0.9 0.7 1.5 1.2 1.8 0.5 0.3 1 0.4 1.6 0.1 1.8-0.6 3.3-2.6 4.5-6C204.2 234.9 205.1 230.2 205.6 224.2M206.4 235.6c-0.7 4.1-1.8 7.3-3.1 9.6 -1.4 2.3-3.1 3.8-5.3 4.5 -1 0.4-2 0.5-2.9 0.5s-1.6-0.2-2.3-0.7c-0.7 0.8-1.6 1.5-2.7 2.2 -1.1 0.7-2.4 1.3-3.9 1.9l-0.2-4.1c1-0.4 1.8-0.8 2.6-1.3 0.7-0.5 1.3-1 1.8-1.6 -0.2-0.4-0.4-0.7-0.6-1.1 -0.2-0.4-0.4-0.8-0.5-1.3 -0.5-1.5-0.8-3.3-0.7-5.3 0-2 0.3-4.1 0.9-6.2 0.9-3.3 2.2-6 4-8.1 1.7-2.1 3.8-3.6 6.2-4.5 1.2-0.4 2.3-0.6 3.2-0.5 1 0 2 0.3 3 0.8l0-1.4c0-0.8 0.1-1.4 0.2-1.7 0.2-0.3 0.5-0.5 0.9-0.7 1.3-0.4 2.4-0.6 3.5-0.5 1.1 0.1 1.7 0.4 1.9 1 0.1 0.2 0 1.2-0.3 3s-0.4 3.5-0.6 5.1c-0.2 3.2-0.3 5.8-0.3 8 0.1 2.2 0.3 3.8 0.7 4.8 0.3 0.7 0.7 1.2 1.2 1.3 0.6 0.1 1.7 0 3.3-0.4l0.2 4 -0.5 0.2c-2.9 1-5 1.4-6.4 1.2 -1.4-0.2-2.3-1-2.8-2.5 -0.2-0.6-0.4-1.5-0.5-2.5C206.5 238.5 206.4 237.2 206.4 235.6"/><path fill="#FFFFFF" d="M216.2 243.3l-0.2-4.1c1.8-0.8 3.1-2.1 3.8-4.1 0.7-1.9 1-4.9 0.9-8.9l-0.8-24c0-0.8-0.1-1.8-0.2-3 -0.2-2.9 0.8-4.8 3.2-5.6 1.1-0.4 1.9-0.5 2.6-0.4 0.7 0.1 1.1 0.5 1.3 1.1 0.1 0.4 0.2 1.5 0.1 3.2 -0.1 1.2-0.1 2.2-0.1 3l-0.2 22.9c0.4-0.3 0.8-0.6 1.2-0.9 0.4-0.3 0.8-0.5 1.3-0.6 0.3-0.1 0.9-0.3 1.6-0.5 0.1 0 0.2-0.1 0.3-0.1 0.5-1.1 0.8-2.2 1-3.5 0.2-1.2 0.2-2.6 0-4.2 0-0.5-0.1-1.2-0.3-2 -0.3-1.8 0.2-2.8 1.4-3.3 1.1-0.4 2-0.5 2.6-0.3s1.1 0.6 1.3 1.4c0.5 1.4 0.4 3.3-0.1 5.7 -0.6 2.4-1.5 4.5-2.9 6.2 0.9 0.2 1.6 0.4 2.1 0.8 0.5 0.4 0.8 1 1.1 1.8 0.1 0.3 0.2 1.1 0.4 2.2 0.1 1.1 0.3 2 0.6 2.7 0.3 0.8 0.7 1.3 1.3 1.4 0.6 0.1 1.7 0 3.4-0.4l0.2 4c-3.2 1.1-5.6 1.6-7.2 1.4s-2.6-1.1-3.1-2.7c-0.2-0.5-0.4-1.5-0.6-3 -0.3-1.6-0.5-2.8-0.7-3.8 -0.4 0.5-0.9 1-1.4 1.3 -0.5 0.3-1 0.6-1.5 0.8 -0.2 0.1-0.5 0.2-0.8 0.2 -0.3 0.1-0.6 0.1-1 0.2 0 1.8 0.2 3.9 0.3 6.1 0.2 2.2 0.2 3.5 0.2 3.8 -0.1 0.5-0.3 0.9-0.8 1.2 -0.5 0.3-1.3 0.7-2.5 1.1 -0.7 0.3-1.3 0.4-1.6 0.3 -0.3 0-0.6-0.2-0.7-0.6 -0.1-0.2-0.1-0.4-0.1-0.8 0-0.3 0-0.8 0.1-1.3 -0.5 1.1-1.2 2.1-2.1 2.9C218.6 242 217.5 242.7 216.2 243.3"/><path fill="#FFFFFF" d="M253.1 220.9c1.5-1.9 2.5-4.1 3-6.7 0.6-2.6 0.6-4.6 0-6.2 -0.3-0.8-0.7-1.3-1.2-1.6 -0.5-0.3-1.2-0.3-1.9 0 -1.5 0.5-2.5 1.9-3.1 4.1 -0.5 2.2-0.4 4.4 0.4 6.8 0.3 0.9 0.7 1.6 1.1 2.2C251.9 220.1 252.4 220.5 253.1 220.9M252.3 227.6c-1.5 1.5-3 2.7-4.6 3.8 -1.6 1.1-3.3 2-5.1 2.7l-0.2-4.1c1.2-0.5 2.3-1.1 3.3-1.7 1-0.6 1.9-1.3 2.7-2.1 -1-0.7-1.9-1.5-2.6-2.6 -0.7-1.1-1.4-2.4-1.9-3.9 -1.3-3.6-1.1-7.2 0.4-10.8 1.5-3.6 4-5.9 7.4-7.1 1.9-0.7 3.6-0.6 5.1 0.1 1.5 0.8 2.6 2.1 3.3 4.1 0.7 2.1 0.8 4.8 0.1 7.9 -0.7 3.1-2 6.2-3.9 9.1 1 0.4 2 0.7 3 0.6 1 0 2.2-0.2 3.5-0.7l0.4-0.1 0.2 4.1 -0.7 0.3c-2 0.7-3.9 1.1-5.6 1.2C255.3 228.4 253.7 228.2 252.3 227.6"/><path fill="#FFFFFF" d="M307.1 189c-1.5 7.7-3.5 13.8-6 18.5 -2.5 4.6-5.4 7.5-8.7 8.6 -1.7 0.6-3.2 0.6-4.4 0.1 -1.2-0.5-2.1-1.6-2.7-3.1 -0.3-0.8-0.5-2.4-0.6-4.8 -0.1-2.4-0.1-5.2 0-8.4 0-1 0.1-2.5 0.2-4.4 0.3-7.6 0.2-12.2-0.4-13.8 -0.4-1.1-1-1.8-1.8-2.2 -0.8-0.4-1.7-0.4-2.8-0.1 -2.1 0.7-3.5 2.6-4.3 5.6 -0.8 3-0.7 6.1 0.4 9.1 0.3 0.9 0.7 1.7 1.1 2.2 0.4 0.5 0.9 0.9 1.5 1.1 0.1 0.4 0 0.8-0.3 1.2 -0.3 0.4-0.9 0.7-1.6 1 -1.4 0.5-2.7 0.3-3.9-0.6 -1.3-0.8-2.2-2.2-2.9-4 -1.5-4.4-1.4-8.6 0.3-12.8 1.8-4.1 4.5-6.9 8.3-8.2 2.9-1 5.4-1 7.5 0 2.1 1 3.7 2.9 4.7 5.7 0.5 1.5 0.9 3.3 1.1 5.5 0.2 2.2 0.2 4.9 0.1 8l-0.4 11.3c0 1.1 0 1.9 0 2.4 0 0.5 0.1 0.8 0.2 1.1 0.2 0.6 0.5 0.9 0.8 1 0.3 0.1 0.8 0.1 1.5-0.2 1-0.4 2-1 2.8-2 0.8-1 1.6-2.4 2.4-4.2 1.2-2.8 2.3-5.9 3.2-9.1 0.9-3.3 1.6-6.6 2.2-10 0.7-4.2 1-8.5 1.1-13 0-4.5 0.4-6.8 1.1-7.1 0.9-0.3 2-0.4 3.2-0.3 1.2 0.1 1.9 0.4 2 0.9 0.1 0.3 0.2 0.8 0.2 1.6 0 0.2 0 0.4 0 0.6l1.4 22.7c0.2 3.2 0.3 6 0.4 8.5 0.1 2.5 0.1 4.9 0.1 7.3 0.7-0.1 1.2-0.2 1.6-0.3 0.4-0.1 0.8-0.2 1.1-0.3 0.2-0.1 0.7-0.2 1.3-0.5 0.3-0.1 0.5-0.2 0.7-0.3l0.3 4c-0.2 0.1-0.6 0.3-1.1 0.5 -0.5 0.2-0.8 0.3-1 0.4 -0.5 0.2-1.3 0.4-2.6 0.6 -0.2 0-0.4 0.1-0.5 0.1 -0.6 5.3-1.6 9.5-3.1 12.5 -1.5 3.1-3.5 5-6 5.9 -1.2 0.4-2.2 0.5-3.1 0.2 -0.9-0.3-1.5-0.9-1.8-1.9 -0.6-1.7-0.2-4 1.2-6.8 1.4-2.8 3.5-5.6 6.4-8.2 0.3-3.6 0.4-7.2 0.4-10.8C307.8 196.3 307.6 192.6 307.1 189"/><path fill="#FFFFFF" d="M335.2 182.8c-1 0.2-1.8 0.1-2.4-0.3 -0.7-0.4-1.1-1-1.5-1.9 -0.4-1.3-0.5-2.5 0-3.6 0.4-1.1 1.2-1.8 2.3-2.2 1.2-0.4 2.3-0.3 3.4 0.5 1 0.7 1.8 2 2.4 3.8 0.8 2.2 1.2 4.6 1.3 7.1 0.1 2.5-0.2 5-0.8 7.3 -0.6 2.5-1.6 4.5-2.8 6.1 -1.2 1.6-2.7 2.6-4.5 3.3 -1.3 0.5-2.5 0.7-3.5 0.7 -1.1 0-2.1-0.2-3-0.7 -1 1-2.1 1.9-3.3 2.7 -1.2 0.8-2.5 1.4-4 2l-0.2-4.1c1-0.4 1.8-0.8 2.6-1.3 0.7-0.5 1.3-1 1.9-1.6 -0.4-0.5-0.8-1.1-1.2-1.7 -0.3-0.6-0.6-1.3-0.9-2.1 -0.7-2-1-4.3-0.9-6.7 0.1-2.5 0.5-4.8 1.4-7 0.7-1.9 1.8-3.7 3.2-5.2 1.4-1.5 2.9-2.6 4.4-3.1 0.4-0.1 0.7-0.2 1-0.1 0.3 0.1 0.5 0.3 0.6 0.6 0.1 0.4-0.1 1.2-0.7 2.4 -0.6 1.2-1 2.1-1.3 2.9 -1.1 3-1.7 5.9-1.8 8.6 -0.2 2.8 0.1 5.2 0.9 7.3 0.4 1 0.8 1.7 1.5 2.1 0.6 0.4 1.4 0.5 2.1 0.2 1.9-0.7 3.2-2.6 4.1-5.9C336.5 189.5 336.3 186.2 335.2 182.8"/><path fill="#FFFFFF" d="M334.6 200.4l0.6-2.8c1.1-0.4 7.6-2.8 8.5-3.5 0.9-0.6 1.7-1.4 2.5-2.3 -0.1-0.1-0.1-0.2-0.2-0.4 -0.1-0.1-0.1-0.3-0.2-0.6 -0.6-1.8-1-5.8-1-12 0-1.2 0-2.1 0-2.7 0-0.6 0-1.3 0-2.3 -0.1-3.2 0.4-5 1.3-5.3 1.2-0.4 2.5-0.6 3.9-0.6 1.4 0.1 2.1 0.3 2.3 0.9 0.1 0.2 0 1.4-0.2 3.5s-0.4 4.1-0.5 6.1c-0.2 3.1-0.2 5.5-0.2 7.1 0 1.6 0.2 2.7 0.4 3.4 0.2 0.6 0.5 0.9 0.9 1.1 0.4 0.2 0.8 0.2 1.4 0 1.2-0.4 2.3-1.9 3.2-4.5 0.9-2.6 1.5-5.8 1.7-9.7 0.2-2.1 0.2-4.6 0-7.3 -0.2-2.8 0.4-4.5 1.7-4.9 1.2-0.4 2.3-0.6 3.4-0.5 1.1 0.1 1.7 0.4 1.9 0.9 0.1 0.2 0 1.4-0.2 3.5 -0.2 2.2-0.3 4.2-0.4 6 -0.1 2.6-0.1 4.8 0 6.5 0.1 1.7 0.3 3.1 0.7 4 0.3 0.9 0.8 1.5 1.4 1.6 0.6 0.2 1.6 0.1 3-0.4l0.2 4.1 -0.5 0.2c-2.6 0.9-4.5 1.2-5.7 1 -1.2-0.3-2.1-1.2-2.6-2.7 -0.2-0.6-0.4-1.4-0.5-2.4 -0.1-1-0.2-2.3-0.3-3.9 -1.3 4.9-2.5 8.4-3.6 10.2 -1.1 1.9-2.6 3.1-4.3 3.7 -1.2 0.4-2.2 0.5-3.1 0.4 -0.9-0.1-1.7-0.5-2.3-1.2 -0.8 1.1-1.7 2.1-2.8 2.8C341.5 199.9 336.2 199.7 334.6 200.4"/><path fill="#FFFFFF" d="M370.1 189.7l-0.2-4.1c2.1-1.2 3.7-3.4 4.6-6.8 0.9-3.3 1.5-8.8 1.6-16.3 -0.6-0.3-1-0.6-1.4-1.1 -0.4-0.4-0.7-1-0.9-1.6 -0.5-1.3-0.5-2.5-0.1-3.6 0.4-1.1 1.2-1.9 2.3-2.2 1-0.3 1.9-0.4 2.7 0 0.8 0.3 1.3 1 1.6 1.9 0.2 0.4 0.2 0.9 0.3 1.3 0 0.4 0 0.8 0 1.3 1.1 0.3 2.6 0.5 4.3 0.8 3.2 0.5 5 1.5 5.5 2.9 0.4 1.2 0.4 3.6 0 7.1 -0.4 3.5-0.4 5.9 0 7 0.2 0.7 0.6 1 1.2 1.1 0.6 0.1 2-0.1 4.1-0.7l0.2 4 -0.8 0.3c-3.3 1.1-5.8 1.6-7.5 1.3 -1.7-0.3-2.8-1.2-3.4-2.9 -0.5-1.5-0.6-4-0.3-7.4 0.3-3.5 0.4-5.6 0.1-6.4 -0.1-0.4-0.5-0.7-1.1-1 -0.6-0.3-1.6-0.5-3-0.8 0 7.9-0.7 13.8-2.3 17.8C376.1 185.5 373.6 188.3 370.1 189.7"/></svg>