<svg xmlns="http://www.w3.org/2000/svg" version="1.1" x="0" y="0" viewBox="226.8 226.8 86.4 86.4" enable-background="new 226.8 226.8 86.4 86.4" xml:space="preserve"><path fill="#808285" d="M270 307.4c-20.6 0-37.4-16.8-37.4-37.4 0-20.6 16.8-37.4 37.4-37.4 20.6 0 37.4 16.8 37.4 37.4C307.4 290.6 290.6 307.4 270 307.4M270 226.8c-23.8 0-43.2 19.3-43.2 43.2 0 23.8 19.3 43.2 43.2 43.2 23.8 0 43.2-19.3 43.2-43.2C313.2 246.2 293.8 226.8 270 226.8M289.1 268.1l-22.2-17.6c-1.2-1-3.3-1-4.5 0l0 0c-0.6 0.5-1 1.1-1 1.8v35.2c0 0.7 0.4 1.4 1 1.8l0 0c1.3 1 3.3 1 4.5 0l22.3-17.6c1.3-1 1.3-2.6 0-3.5L289.1 268.1z"/></svg>