<?xml version="1.0" encoding="utf-8"?>
<!-- Generator: Adobe Illustrator 16.0.0, SVG Export Plug-In . SVG Version: 6.00 Build 0)  -->
<!DOCTYPE svg PUBLIC "-//W3C//DTD SVG 1.1//EN" "http://www.w3.org/Graphics/SVG/1.1/DTD/svg11.dtd">
<svg version="1.1" id="Layer_1" xmlns="http://www.w3.org/2000/svg" xmlns:xlink="http://www.w3.org/1999/xlink" x="0px" y="0px"
	 width="540px" height="540px" viewBox="0 0 540 540" enable-background="new 0 0 540 540" xml:space="preserve">
<g>
	<path fill="#FFFFFF" d="M396.848,213.795h-59.51h-1.662l-0.756,1.48l-12.958,25.37l-2.018,3.95h4.436h52.227
		c8.752,26.264,17.504,52.528,26.256,78.792c-2.561,2.829-5.121,5.658-7.681,8.487l-1.823,2.014l2.015,1.821
		c8.225,7.437,12.839,14.313,13.682,15.616l0.143,0.222l0.215,0.238l1.501,1.555c0.541-0.326,1.083-0.651,1.624-0.977
		c7.149,21.464,14.298,42.925,21.448,64.388H105.992c7.691-23.051,15.383-46.103,23.074-69.154c0.671,0.419,1.342,0.839,2.012,1.258
		l1.441-2.294l13.478-21.455l1.441-2.295l-2.291-1.446c-2.363-1.491-4.348-2.948-5.953-4.198
		c8.065-24.19,16.133-48.382,24.199-72.572h52.251h4.438l-2.021-3.952c-5.375-10.503-9.611-18.801-12.955-25.365l-0.755-1.483
		h-1.664h-59.535h-1.957l-0.619,1.857L64.468,443.977l-1.19,3.574h3.767h405.912h3.767l-1.19-3.574l-76.109-228.325l-0.618-1.857
		H396.848z M310.77,153.086c0-22.48-18.289-40.769-40.77-40.769s-40.77,18.289-40.77,40.769c0,22.481,18.289,40.77,40.77,40.77
		S310.77,175.567,310.77,153.086 M336.139,153.086c0,10.453-2.484,20.836-7.186,30.026l-56.535,110.741l-2.419,4.738l-2.418-4.738
		C254.21,267.65,210.563,182.12,210.34,181.648c-4.296-8.913-6.479-18.529-6.479-28.562c0-36.469,29.67-66.139,66.139-66.139
		S336.139,116.617,336.139,153.086 M261.87,308.874c-2.59,1.621-5.299,3.22-8.282,4.886l-2.367,1.322l1.319,2.369l12.339,22.149
		l1.324,2.377l2.374-1.329c3.711-2.079,6.746-3.863,9.551-5.616c4.23-2.62,8.474-5.017,12.602-7.117l2.422-1.233l-1.235-2.42
		l-11.52-22.595l-1.234-2.42l-2.419,1.235c-4.971,2.537-9.971,5.358-14.861,8.384l-0.006,0.004L261.87,308.874z M301.45,292.911
		l7.582,24.18l0.812,2.59l2.591-0.811c7.575-2.372,15.045-3.867,22.198-4.444l2.706-0.218l-0.217-2.706l-2.033-25.27l-0.217-2.706
		l-2.706,0.217c-9.44,0.758-19.177,2.697-28.939,5.765l-2.588,0.814L301.45,292.911z M356.437,315.573
		c7.055,1.388,13.946,3.804,20.484,7.181l2.412,1.246l1.246-2.412l11.646-22.545l1.249-2.418l-2.421-1.243
		c-9.189-4.723-18.835-8.091-28.666-10.012l-2.659-0.521l-0.525,2.659l-4.906,24.875l-0.525,2.665L356.437,315.573z
		 M156.449,359.791c9.536,2.747,19.561,4.216,29.797,4.367l2.712,0.04l0.043-2.712l0.396-25.37l0.043-2.714l-2.715-0.043
		c-7.572-0.12-14.895-1.184-21.763-3.164l-2.609-0.753l-0.751,2.611l-7.012,24.379l-0.751,2.608L156.449,359.791z M235.21,325.775
		l9.414,23.537l1.009,2.522l-2.521,1.008c-9.234,3.688-18.496,6.518-27.529,8.41l-2.66,0.558l-0.555-2.661l-5.178-24.824
		l-0.554-2.654l2.653-0.557c7.256-1.525,14.791-3.831,22.397-6.854l2.518-1L235.21,325.775z"/>
	<path fill="none" stroke="#FFFFFF" stroke-width="5.43" stroke-miterlimit="10" d="M396.848,213.795h-59.51h-1.662l-0.756,1.48
		l-12.958,25.37l-2.018,3.95h4.436h52.227c8.752,26.264,17.504,52.528,26.256,78.792c-2.561,2.829-5.121,5.658-7.681,8.487
		l-1.823,2.014l2.015,1.821c8.225,7.437,12.839,14.313,13.682,15.616l0.143,0.222l0.215,0.238l1.501,1.555
		c0.541-0.326,1.083-0.651,1.624-0.977c7.149,21.464,14.298,42.925,21.448,64.388H105.992c7.691-23.051,15.383-46.103,23.074-69.154
		c0.671,0.419,1.342,0.839,2.012,1.258l1.441-2.294l13.478-21.455l1.441-2.295l-2.291-1.446c-2.363-1.491-4.348-2.948-5.953-4.198
		c8.065-24.19,16.133-48.382,24.199-72.572h52.251h4.438l-2.021-3.952c-5.375-10.503-9.611-18.801-12.955-25.365l-0.755-1.483
		h-1.664h-59.535h-1.957l-0.619,1.857L64.468,443.977l-1.19,3.574h3.767h405.912h3.767l-1.19-3.574l-76.109-228.325l-0.618-1.857
		H396.848z M310.77,153.086c0-22.48-18.289-40.769-40.77-40.769s-40.77,18.289-40.77,40.769c0,22.481,18.289,40.77,40.77,40.77
		S310.77,175.567,310.77,153.086z M336.139,153.086c0,10.453-2.484,20.836-7.186,30.026l-56.535,110.741l-2.419,4.738l-2.418-4.738
		C254.21,267.65,210.563,182.12,210.34,181.648c-4.296-8.913-6.479-18.529-6.479-28.562c0-36.469,29.67-66.139,66.139-66.139
		S336.139,116.617,336.139,153.086z M261.87,308.874c-2.59,1.621-5.299,3.22-8.282,4.886l-2.367,1.322l1.319,2.369l12.339,22.149
		l1.324,2.377l2.374-1.329c3.711-2.079,6.746-3.863,9.551-5.616c4.23-2.62,8.474-5.017,12.602-7.117l2.422-1.233l-1.235-2.42
		l-11.52-22.595l-1.234-2.42l-2.419,1.235c-4.971,2.537-9.971,5.358-14.861,8.384l-0.006,0.004L261.87,308.874z M301.45,292.911
		l7.582,24.18l0.812,2.59l2.591-0.811c7.575-2.372,15.045-3.867,22.198-4.444l2.706-0.218l-0.217-2.706l-2.033-25.27l-0.217-2.706
		l-2.706,0.217c-9.44,0.758-19.177,2.697-28.939,5.765l-2.588,0.814L301.45,292.911z M356.437,315.573
		c7.055,1.388,13.946,3.804,20.484,7.181l2.412,1.246l1.246-2.412l11.646-22.545l1.249-2.418l-2.421-1.243
		c-9.189-4.723-18.835-8.091-28.666-10.012l-2.659-0.521l-0.525,2.659l-4.906,24.875l-0.525,2.665L356.437,315.573z
		 M156.449,359.791c9.536,2.747,19.561,4.216,29.797,4.367l2.712,0.04l0.043-2.712l0.396-25.37l0.043-2.714l-2.715-0.043
		c-7.572-0.12-14.895-1.184-21.763-3.164l-2.609-0.753l-0.751,2.611l-7.012,24.379l-0.751,2.608L156.449,359.791z M235.21,325.775
		l9.414,23.537l1.009,2.522l-2.521,1.008c-9.234,3.688-18.496,6.518-27.529,8.41l-2.66,0.558l-0.555-2.661l-5.178-24.824
		l-0.554-2.654l2.653-0.557c7.256-1.525,14.791-3.831,22.397-6.854l2.518-1L235.21,325.775z"/>
	<path fill="#005373" d="M396.848,216.51h-59.51l-12.958,25.369h54.184l27.376,82.154l-8.745,9.662
		c9.315,8.424,14.146,16.178,14.171,16.204l2.676-1.611l23.71,71.178H102.225l25.419-76.183c0.892,0.62,1.586,1.214,2.577,1.833
		l13.477-21.455c-3.022-1.907-5.5-3.79-7.68-5.549l25.419-76.233h54.208c-5.376-10.504-9.613-18.804-12.957-25.369h-59.535
		L67.043,444.835h405.913L396.848,216.51z M308.055,153.086c0-21.009-17.046-38.054-38.055-38.054s-38.055,17.045-38.055,38.054
		c0,21.009,17.046,38.054,38.055,38.054S308.055,174.095,308.055,153.086 M333.423,153.086c0,10.356-2.477,20.167-6.887,28.789
		L270,292.618c0,0-56.982-111.66-57.206-112.131c-3.987-8.275-6.218-17.59-6.218-27.401c0-35.032,28.393-63.424,63.424-63.424
		S333.423,118.055,333.423,153.086 M263.312,311.175c-2.85,1.784-5.649,3.419-8.399,4.955l12.338,22.148
		c3.098-1.734,6.269-3.567,9.439-5.549c4.359-2.701,8.622-5.104,12.809-7.234L277.978,302.9
		C273.221,305.328,268.315,308.078,263.312,311.175 M304.04,292.098l7.582,24.18c7.755-2.427,15.411-3.964,22.793-4.558
		l-2.032-25.271C323.117,287.193,313.579,289.1,304.04,292.098 M356.96,312.909c7.31,1.438,14.444,3.939,21.207,7.432l11.646-22.545
		c-8.919-4.583-18.31-7.879-27.946-9.762L356.96,312.909z M157.2,357.182c9.29,2.676,19.077,4.113,29.086,4.261l0.396-25.369
		c-7.78-0.124-15.336-1.214-22.472-3.271L157.2,357.182z M232.689,326.783l9.414,23.537c-9.117,3.642-18.209,6.417-27.078,8.275
		l-5.178-24.825C217.279,332.209,224.959,329.855,232.689,326.783"/>
	<g>
		<defs>
			<path id="SVGID_1_" d="M157.2,357.182c9.291,2.675,19.078,4.113,29.086,4.261l0.396-25.369
				c-7.778-0.123-15.336-1.213-22.471-3.271L157.2,357.182z M209.848,333.771l5.178,24.824c8.868-1.857,17.962-4.633,27.078-8.274
				l-9.413-23.537C224.959,329.855,217.279,332.208,209.848,333.771 M263.311,311.174c-2.849,1.784-5.647,3.419-8.398,4.956
				l12.338,22.149c3.097-1.734,6.268-3.568,9.439-5.55c4.359-2.7,8.621-5.104,12.809-7.235l-11.52-22.594
				C273.221,305.328,268.315,308.078,263.311,311.174 M356.96,312.909c7.31,1.438,14.445,3.939,21.207,7.433l11.646-22.546
				c-8.92-4.583-18.309-7.879-27.945-9.761L356.96,312.909z M304.041,292.098l7.581,24.18c7.755-2.428,15.411-3.963,22.794-4.558
				l-2.033-25.27C323.117,287.192,313.579,289.1,304.041,292.098 M337.338,216.51l-12.958,25.369h54.183l27.378,82.154l-8.746,9.662
				c9.314,8.423,14.146,16.179,14.172,16.204l2.675-1.61l23.71,71.177H102.224l25.419-76.183c0.893,0.619,1.586,1.214,2.577,1.833
				l13.479-21.455c-3.024-1.907-5.5-3.791-7.682-5.549l25.421-76.233h54.206c-5.375-10.504-9.611-18.804-12.956-25.369h-59.535
				L67.044,444.835h405.912L396.848,216.51H337.338z M231.945,153.086c0-21.009,17.045-38.054,38.055-38.054
				c21.009,0,38.054,17.045,38.054,38.054c0,21.009-17.045,38.056-38.054,38.056C248.99,191.142,231.945,174.095,231.945,153.086
				 M206.576,153.086c0,9.812,2.229,19.127,6.219,27.4C213.017,180.958,270,292.618,270,292.618l56.536-110.743
				c4.41-8.622,6.888-18.433,6.888-28.789c0-35.032-28.392-63.424-63.424-63.424S206.576,118.054,206.576,153.086"/>
		</defs>
		<clipPath id="SVGID_2_">
			<use xlink:href="#SVGID_1_"  overflow="visible"/>
		</clipPath>
		<g opacity="0.8" clip-path="url(#SVGID_2_)">
			<g>
				<defs>
					<rect id="SVGID_3_" x="74.986" y="70.176" width="455.193" height="500.55"/>
				</defs>
				<clipPath id="SVGID_4_">
					<use xlink:href="#SVGID_3_"  overflow="visible"/>
				</clipPath>
				<path clip-path="url(#SVGID_4_)" fill="#005373" d="M245.562,85.18c0.998,31.098,0.203,60.616-5.517,69.975
					c-9.151,14.969-13.574,38.368-1.661,54.365c4.563,6.129,10.235,11.048,15.717,15.806c7.73,6.706,16.169,14.034,20.257,24.554
					c4.56-1.072,9.805-1.9,15.544-2.8c3.372-0.529,7.052-1.107,11.01-1.772c8.073-1.366,16.317-2.399,24.288-3.393
					c13.68-1.708,26.601-3.318,34.444-6.172c3.652-1.327,9.896-8.47,15.405-14.774c9.751-11.151,20.804-23.795,35.21-28.381
					c7.252-2.306,7.901-4.67,9.771-15.444c1.141-6.564,2.561-14.735,6.946-23.658c3.715-7.558,10.916-14.92,19.108-21.519h-49.208
					V85.18H245.562z"/>
				<path clip-path="url(#SVGID_4_)" fill="#005373" d="M482.06,131.967c-15.282,8.767-32.384,20.784-37.09,30.359
					c-3.118,6.349-4.168,12.395-5.184,18.249c-1.938,11.156-4.35,25.043-23.447,31.123c-9.073,2.888-18.171,13.29-26.194,22.468
					c-8.131,9.301-15.149,17.329-23.647,20.423c-9.971,3.622-23.981,5.374-38.816,7.225c-7.758,0.969-15.78,1.967-23.427,3.26
					c-4.046,0.685-7.805,1.272-11.251,1.815c-6.053,0.945-12.691,1.992-16.333,2.991c-0.002,3.651,0.245,7.753,0.521,12.316
					c1.388,22.796,3.485,57.252-23.65,106.125c-19.776,35.616-36.263,50.752-48.3,61.8c-8.037,7.377-12.89,11.832-15.622,19.409
					c-2.854,7.92-9.249,20.261-16.609,33.365h28.481v50.125h77.063v16.707h234.62V131.967H482.06z"/>
				<path clip-path="url(#SVGID_4_)" fill="#005373" d="M276.792,265.788h-0.01c-0.002,0.024,0,0.049-0.002,0.073
					C276.78,265.837,276.792,265.812,276.792,265.788"/>
				<path clip-path="url(#SVGID_4_)" fill="#005373" d="M149.937,502.896c9.134-15.713,17.654-31.373,20.821-40.159
					c4.402-12.223,12.059-19.247,20.924-27.388c11.029-10.118,26.133-23.981,44.33-56.758c24.296-43.762,22.488-73.48,21.166-95.175
					c-0.386-6.349-0.729-12.336-0.418-17.941h-0.018c0.002-0.073,0.015-0.137,0.018-0.21c0.005-0.078-0.003-0.171,0.002-0.25
					c0.604-9.824-5.002-15.175-15.801-24.544c-5.996-5.203-12.797-11.107-18.658-18.978c-17.568-23.589-12.34-55.564,0.634-76.794
					c3.01-5.562,3.552-29.405,2.499-59.52H98.142l-6.156,268.798l24.3,0.211l6.107,148.707H149.937z"/>
			</g>
		</g>
	</g>
	<g>
		<path fill="#FFFFFF" d="M361.829,347.473c0.218,6.776,0.044,13.208-1.202,15.247c-1.994,3.262-2.958,8.36-0.362,11.846
			c0.994,1.335,2.23,2.407,3.425,3.444c1.685,1.461,3.523,3.058,4.413,5.35c0.994-0.233,2.138-0.414,3.388-0.61
			c0.734-0.115,1.536-0.241,2.398-0.386c1.76-0.298,3.556-0.523,5.293-0.739c2.98-0.372,5.796-0.723,7.505-1.345
			c0.796-0.289,2.156-1.845,3.356-3.219c2.125-2.43,4.533-5.185,7.673-6.184c1.58-0.503,1.721-1.018,2.129-3.366
			c0.248-1.43,0.557-3.21,1.513-5.154c0.811-1.647,2.379-3.251,4.164-4.689h-10.723v-10.195H361.829z"/>
		<path fill="none" stroke="#FFFFFF" stroke-width="8.544" stroke-miterlimit="10" d="M361.829,347.473
			c0.218,6.776,0.044,13.208-1.202,15.247c-1.994,3.262-2.958,8.36-0.362,11.846c0.994,1.335,2.23,2.407,3.425,3.444
			c1.685,1.461,3.523,3.058,4.413,5.35c0.994-0.233,2.138-0.414,3.388-0.61c0.734-0.115,1.536-0.241,2.398-0.386
			c1.76-0.298,3.556-0.523,5.293-0.739c2.98-0.372,5.796-0.723,7.505-1.345c0.796-0.289,2.156-1.845,3.356-3.219
			c2.125-2.43,4.533-5.185,7.673-6.184c1.58-0.503,1.721-1.018,2.129-3.366c0.248-1.43,0.557-3.21,1.513-5.154
			c0.811-1.647,2.379-3.251,4.164-4.689h-10.723v-10.195H361.829z"/>
		<path fill="#FFFFFF" d="M413.36,357.667c-3.33,1.91-7.056,4.529-8.082,6.615c-0.679,1.383-0.908,2.701-1.129,3.976
			c-0.423,2.431-0.948,5.457-5.109,6.782c-1.977,0.629-3.959,2.896-5.708,4.896c-1.771,2.026-3.301,3.775-5.151,4.45
			c-2.173,0.789-5.227,1.171-8.458,1.574c-1.691,0.211-3.439,0.429-5.105,0.71c-0.882,0.149-1.701,0.278-2.452,0.396
			c-1.317,0.206-2.765,0.434-3.558,0.652c-0.001,0.795,0.053,1.689,0.113,2.683c0.303,4.967,0.76,12.475-5.153,23.124
			c-4.309,7.761-7.901,11.059-10.524,13.466c-1.752,1.608-2.809,2.578-3.403,4.229c-0.622,1.726-2.017,4.415-3.619,7.27h6.206
			v10.922h16.791v3.641h51.123v-95.386H413.36z"/>
		<path fill="none" stroke="#FFFFFF" stroke-width="8.544" stroke-miterlimit="10" d="M413.36,357.667
			c-3.33,1.91-7.056,4.529-8.082,6.615c-0.679,1.383-0.908,2.701-1.129,3.976c-0.423,2.431-0.948,5.457-5.109,6.782
			c-1.977,0.629-3.959,2.896-5.708,4.896c-1.771,2.026-3.301,3.775-5.151,4.45c-2.173,0.789-5.227,1.171-8.458,1.574
			c-1.691,0.211-3.439,0.429-5.105,0.71c-0.882,0.149-1.701,0.278-2.452,0.396c-1.317,0.206-2.765,0.434-3.558,0.652
			c-0.001,0.795,0.053,1.689,0.113,2.683c0.303,4.967,0.76,12.475-5.153,23.124c-4.309,7.761-7.901,11.059-10.524,13.466
			c-1.752,1.608-2.809,2.578-3.403,4.229c-0.622,1.726-2.017,4.415-3.619,7.27h6.206v10.922h16.791v3.641h51.123v-95.386H413.36z"/>
		<polyline fill="#FFFFFF" points="368.634,386.826 368.632,386.826 368.631,386.839 368.634,386.826 		"/>
		<polygon fill="none" stroke="#FFFFFF" stroke-width="8.544" stroke-miterlimit="10" points="368.634,386.826 368.632,386.826 
			368.631,386.839 		"/>
		<path fill="#FFFFFF" d="M340.992,438.49c1.99-3.424,3.848-6.836,4.537-8.75c0.959-2.664,2.627-4.194,4.56-5.968
			c2.402-2.205,5.693-5.225,9.659-12.367c5.294-9.536,4.899-16.011,4.611-20.738c-0.084-1.384-0.159-2.688-0.091-3.91h-0.004
			c0.001-0.016,0.004-0.03,0.004-0.046c0.001-0.017,0-0.037,0.001-0.054c0.131-2.141-1.09-3.306-3.443-5.348
			c-1.307-1.134-2.789-2.42-4.065-4.135c-3.828-5.14-2.689-12.107,0.138-16.733c0.656-1.212,0.774-6.407,0.545-12.969h-27.736
			l-1.342,58.57l5.295,0.045l1.33,32.403H340.992z"/>
		<path fill="none" stroke="#FFFFFF" stroke-width="8.544" stroke-miterlimit="10" d="M340.992,438.49
			c1.99-3.424,3.848-6.836,4.537-8.75c0.959-2.664,2.627-4.194,4.56-5.968c2.402-2.205,5.693-5.225,9.659-12.367
			c5.294-9.536,4.899-16.011,4.611-20.738c-0.084-1.384-0.159-2.688-0.091-3.91h-0.004c0.001-0.016,0.004-0.03,0.004-0.046
			c0.001-0.017,0-0.037,0.001-0.054c0.131-2.141-1.09-3.306-3.443-5.348c-1.307-1.134-2.789-2.42-4.065-4.135
			c-3.828-5.14-2.689-12.107,0.138-16.733c0.656-1.212,0.774-6.407,0.545-12.969h-27.736l-1.342,58.57l5.295,0.045l1.33,32.403
			H340.992z"/>
		<path fill="#85C446" d="M361.829,347.473c0.218,6.776,0.044,13.208-1.202,15.247c-1.994,3.262-2.958,8.36-0.362,11.846
			c0.994,1.335,2.23,2.407,3.425,3.444c1.685,1.461,3.523,3.058,4.413,5.35c0.994-0.233,2.138-0.414,3.388-0.61
			c0.734-0.115,1.536-0.241,2.398-0.386c1.76-0.298,3.556-0.523,5.293-0.739c2.98-0.372,5.796-0.723,7.505-1.345
			c0.796-0.289,2.156-1.845,3.356-3.219c2.125-2.43,4.533-5.185,7.673-6.184c1.58-0.503,1.721-1.018,2.129-3.366
			c0.248-1.43,0.557-3.21,1.513-5.154c0.811-1.647,2.379-3.251,4.164-4.689h-10.723v-10.195H361.829z"/>
		<path fill="#85C446" d="M413.36,357.667c-3.33,1.91-7.056,4.529-8.082,6.615c-0.679,1.383-0.908,2.701-1.129,3.976
			c-0.423,2.431-0.948,5.457-5.109,6.782c-1.977,0.629-3.959,2.896-5.708,4.896c-1.771,2.026-3.301,3.775-5.151,4.45
			c-2.173,0.789-5.227,1.171-8.458,1.574c-1.691,0.211-3.439,0.429-5.105,0.71c-0.882,0.149-1.701,0.278-2.452,0.396
			c-1.317,0.206-2.765,0.434-3.558,0.652c-0.001,0.795,0.053,1.689,0.113,2.683c0.303,4.967,0.76,12.475-5.153,23.124
			c-4.309,7.761-7.901,11.059-10.524,13.466c-1.752,1.608-2.809,2.578-3.403,4.229c-0.622,1.726-2.017,4.415-3.619,7.27h6.206
			v10.922h16.791v3.641h51.123v-95.386H413.36z"/>
		<path fill="#85C446" d="M368.634,386.826h-0.002c-0.001,0.005,0,0.011-0.001,0.016
			C368.631,386.837,368.634,386.831,368.634,386.826"/>
		<path fill="#85C446" d="M340.992,438.49c1.99-3.424,3.848-6.836,4.537-8.75c0.959-2.664,2.627-4.194,4.56-5.968
			c2.402-2.205,5.693-5.225,9.659-12.367c5.294-9.536,4.899-16.011,4.611-20.738c-0.084-1.384-0.159-2.688-0.091-3.91h-0.004
			c0.001-0.016,0.004-0.03,0.004-0.046c0.001-0.017,0-0.037,0.001-0.054c0.131-2.141-1.09-3.306-3.443-5.348
			c-1.307-1.134-2.789-2.42-4.065-4.135c-3.828-5.14-2.689-12.107,0.138-16.733c0.656-1.212,0.774-6.407,0.545-12.969h-27.736
			l-1.342,58.57l5.295,0.045l1.33,32.403H340.992z"/>
	</g>
	<text transform="matrix(1 0 0 1 100.1509 440.7085)" fill="#85C446" font-family="'Avenir-Heavy'" font-size="23.8925">THINGS TO DO</text>
	<text transform="matrix(1 0 0 1 275.3315 440.7085)" fill="#808285" font-family="'Avenir-Heavy'" font-size="23.8925"> </text>
	<path fill="#85C446" d="M282.815,438.292c-0.554,0.553-0.554,1.449,0,2.002c0.552,0.553,1.447,0.553,2.001,0l8.69-8.691
		c0.276-0.276,0.414-0.638,0.414-1c0-0.362-0.138-0.724-0.414-1l-8.69-8.691c-0.554-0.553-1.449-0.553-2.001,0
		c-0.554,0.553-0.554,1.449,0,2.002l7.688,7.689L282.815,438.292z M299.314,430.604l-7.69-7.689c-0.552-0.553-0.552-1.449,0-2.002
		c0.553-0.553,1.449-0.553,2.002,0l8.691,8.691c0.275,0.276,0.414,0.638,0.414,1c0,0.362-0.14,0.724-0.414,1l-8.691,8.691
		c-0.553,0.553-1.449,0.553-2.002,0c-0.552-0.553-0.552-1.449,0-2.002L299.314,430.604z"/>
</g>
</svg>
