<svg xmlns="http://www.w3.org/2000/svg" version="1.1" x="0" y="0" viewBox="243.9 243.2 52.2 53.6" enable-background="new 243.9 243.2 52.2 53.6" xml:space="preserve"><path fill="#808285" d="M263.4 247c3.4 0 6.1 2.7 6.1 6.1 0 3.4-2.7 6.1-6.1 6.1s-6.1-2.7-6.1-6.1C257.3 249.8 260 247 263.4 247M255.7 259.4l7.7 15.1 7.6-15c1.5-1.7 2.4-4 2.4-6.4 0-5.5-4.5-9.9-9.9-9.9 -5.5 0-9.9 4.5-9.9 9.9C253.5 255.5 254.3 257.7 255.7 259.4L255.7 259.4 255.7 259.4zM263.5 278.9l-0.2-0.4 0-0.2 0.6-0.1L263.5 278.9zM260 294.4l-14.1-2.6 1.8-15.2 13.2 2 0.6-0.1 0.1 0.6L260 294.4zM278.5 274.3l-0.3 0 -0.1-0.7 1.7-18 0.2-0.1 14.1 5.4 -1.9 15.1L278.5 274.3zM293.8 277.4l2.2-17.7 -16.1-6.1 -5.1 2.4c-0.2 0.8-0.4 1.5-0.7 2.3l3.9-1.8 -1.6 17.1 0.1 0.9 -11.7 1.8 -1 1.9 12.9-1.9 1.5 15.2 1.7-0.2 -1.5-15.3 0.1 0 13.5 1.7 0-0.3 2 17.1 -14-3.2 -18.2 3.5 -0.2 0 1.6-15.6 0-0.1 -0.1-0.6 -2.2-4.4 0.3 2.8 -0.4 0.1 -13-2 0.1-0.6 -2-15.7 9.1 3.8 -0.8-1.5c-0.2-0.3-0.5-0.7-0.7-1l-9.8-4.1 2.3 18.5 0 0.4 0 0 -0.3 1.7 0.1 0 -2 16.8 17.8 3.3 18.2-3.5 16.1 3.7L293.8 277.4z"/></svg>